<svg width="382" height="328" viewBox="0 0 382 328" fill="none" xmlns="http://www.w3.org/2000/svg">
  <path d="M0 0H382V327.797H0V0Z" fill="#F1F0EE"/>
  <rect x="149" y="80" width="100" height="180" rx="16" fill="#0B0B0B"/>
  <rect x="140" y="71" width="100" height="180" rx="16" fill="white" stroke="#0B0B0B" stroke-width="3"/>
  <circle cx="190" cy="120" r="25" fill="#FFC224" stroke="#0B0B0B" stroke-width="3"/>
  <line x1="160" y1="170" x2="220" y2="170" stroke="#0B0B0B" stroke-width="4" stroke-linecap="round"/>
  <line x1="175" y1="190" x2="205" y2="190" stroke="#0B0B0B" stroke-width="4" stroke-linecap="round"/>
  <path d="M100 160 A 90 90 0 0 1 280 160" fill="none" stroke="#0B0B0B" stroke-width="12" stroke-linecap="round"/>
  <rect x="85" y="150" width="30" height="60" rx="15" fill="#1C92FF" stroke="#0B0B0B" stroke-width="3"/>
  <rect x="265" y="150" width="30" height="60" rx="15" fill="#FF4A60" stroke="#0B0B0B" stroke-width="3"/>
  <line x1="60" y1="160" x2="60" y2="200" stroke="#0B0B0B" stroke-width="4" stroke-linecap="round"/>
  <line x1="45" y1="170" x2="45" y2="190" stroke="#0B0B0B" stroke-width="4" stroke-linecap="round"/>
  <line x1="320" y1="160" x2="320" y2="200" stroke="#0B0B0B" stroke-width="4" stroke-linecap="round"/>
  <line x1="335" y1="170" x2="335" y2="190" stroke="#0B0B0B" stroke-width="4" stroke-linecap="round"/>
</svg>
