<svg width="382" height="328" viewBox="0 0 382 328" fill="none" xmlns="http://www.w3.org/2000/svg">
  <path d="M0 0H382V327.797H0V0Z" fill="#F1F0EE"/>
  <rect x="99" y="40" width="180" height="240" rx="12" fill="#0B0B0B"/>
  <rect x="90" y="31" width="180" height="240" rx="12" fill="white" stroke="#0B0B0B" stroke-width="3"/>
  <line x1="110" y1="70" x2="250" y2="70" stroke="#0B0B0B" stroke-width="6" stroke-linecap="round"/>
  <circle cx="120" cy="110" r="6" fill="#FF4A60" stroke="#0B0B0B" stroke-width="2"/>
  <line x1="140" y1="110" x2="240" y2="110" stroke="#0B0B0B" stroke-width="4" stroke-linecap="round"/>
  <line x1="140" y1="125" x2="200" y2="125" stroke="#0B0B0B" stroke-width="4" stroke-linecap="round"/>
  <circle cx="120" cy="160" r="6" fill="#1C92FF" stroke="#0B0B0B" stroke-width="2"/>
  <line x1="140" y1="160" x2="240" y2="160" stroke="#0B0B0B" stroke-width="4" stroke-linecap="round"/>
  <line x1="140" y1="175" x2="220" y2="175" stroke="#0B0B0B" stroke-width="4" stroke-linecap="round"/>
  <circle cx="120" cy="210" r="6" fill="#81E644" stroke="#0B0B0B" stroke-width="2"/>
  <line x1="140" y1="210" x2="230" y2="210" stroke="#0B0B0B" stroke-width="4" stroke-linecap="round"/>
  <path d="M260 90 L230 160 L260 160 L240 230 L290 140 L260 140 Z" fill="#FFC224" stroke="#0B0B0B" stroke-width="3" stroke-linejoin="round"/>
</svg>
