<svg width="382" height="328" viewBox="0 0 382 328" fill="none" xmlns="http://www.w3.org/2000/svg">
  <path d="M0 0H382V327.797H0V0Z" fill="#F1F0EE"/>
  <rect x="109" y="40" width="160" height="240" rx="12" fill="#0B0B0B"/>
  <rect x="100" y="31" width="160" height="240" rx="12" fill="white" stroke="#0B0B0B" stroke-width="3"/>
  <rect x="120" y="70" width="20" height="20" rx="4" fill="#81E644" stroke="#0B0B0B" stroke-width="3"/>
  <path d="M125 80 L130 85 L140 70" fill="none" stroke="#0B0B0B" stroke-width="3" stroke-linecap="round" stroke-linejoin="round"/>
  <line x1="150" y1="80" x2="230" y2="80" stroke="#0B0B0B" stroke-width="4" stroke-linecap="round"/>
  <rect x="120" y="110" width="20" height="20" rx="4" fill="white" stroke="#0B0B0B" stroke-width="3"/>
  <line x1="150" y1="120" x2="230" y2="120" stroke="#0B0B0B" stroke-width="4" stroke-linecap="round"/>
  <rect x="120" y="150" width="20" height="20" rx="4" fill="#FF4A60" stroke="#0B0B0B" stroke-width="3"/>
  <path d="M125 155 L135 165 M135 155 L125 165" fill="none" stroke="#0B0B0B" stroke-width="3" stroke-linecap="round"/>
  <line x1="150" y1="160" x2="230" y2="160" stroke="#0B0B0B" stroke-width="4" stroke-linecap="round"/>
  <circle cx="260" cy="220" r="30" fill="#FFC224" stroke="#0B0B0B" stroke-width="3"/>
  <text x="260" y="230" font-family="sans-serif" font-weight="bold" font-size="24" text-anchor="middle" fill="#0B0B0B">A+</text>
</svg>
