<?xml version="1.0" encoding="UTF-8"?>
<svg version="1.1" xmlns="http://www.w3.org/2000/svg" width="628" height="397">
<path d="M0 0 C2.35327148 0.10620117 2.35327148 0.10620117 5 1 C6.75415039 3.2746582 6.75415039 3.2746582 8.34765625 6.30078125 C8.94682861 7.41340332 9.54600098 8.52602539 10.16333008 9.67236328 C10.62783066 10.56281342 10.62783066 10.56281342 11.10171509 11.47125244 C12.39919553 13.95774309 13.73348743 16.42372337 15.06706238 18.89099121 C15.74234682 20.14044221 16.41585443 21.39085512 17.08760071 22.64221191 C20.00729037 28.06746291 23.10965534 33.36329663 26.3125 38.625 C26.80049072 39.4298584 27.28848145 40.2347168 27.79125977 41.06396484 C28.74103826 42.62956902 29.69161449 44.19468958 30.64306641 45.75927734 C34.0382424 51.36577703 37.34930934 57.02186883 40.64794922 62.68554688 C41.62217413 64.35323416 42.6009205 66.01828305 43.58251953 67.68164062 C45.25159576 70.51170735 46.90798318 73.34890195 48.5625 76.1875 C49.08779297 77.07300537 49.61308594 77.95851074 50.15429688 78.87084961 C52.68691584 83.24548764 54.65383974 86.84136787 55 92 C47.3055241 91.43223344 39.90832778 90.07139916 32.375 88.4375 C31.27542969 88.20353516 30.17585937 87.96957031 29.04296875 87.72851562 C26.36091733 87.15712206 23.6800116 86.58087187 21 86 C21.00138269 87.28189665 21.00138269 87.28189665 21.00279331 88.58969021 C21.02484656 109.35289937 21.04141058 130.11610652 21.05181217 150.87932491 C21.05697558 160.92012387 21.06401912 170.96091503 21.07543945 181.00170898 C21.08538493 189.74995302 21.0918531 198.49819141 21.09408849 207.24644095 C21.09539583 211.88154999 21.09848315 216.51664287 21.10573006 221.15174675 C21.11248813 225.50925479 21.1146174 229.86673992 21.11310768 234.2242527 C21.11338411 235.82832844 21.11539049 237.43240491 21.11920547 239.03647614 C21.12413941 241.2169273 21.12299942 243.39729057 21.12025452 245.57774353 C21.12163721 247.41257246 21.12163721 247.41257246 21.12304783 249.28446865 C21 252 21 252 20 253 C14.96190586 253.34053682 9.92167989 253.39967006 4.87329102 253.45996094 C3.1747612 253.48651818 1.47639113 253.52738963 -0.22143555 253.58300781 C-14.31073357 254.03923008 -14.31073357 254.03923008 -18.390625 251.52929688 C-19.93311967 249.74235281 -20.95062169 248.10484961 -22 246 C-22.85648345 244.81967284 -23.72991816 243.65133167 -24.625 242.5 C-25.12 241.8296875 -25.615 241.159375 -26.125 240.46875 C-28.5616482 237.26049654 -31.09524714 234.13502621 -33.625 231 C-38.27433519 225.22250672 -42.7833588 219.35808219 -47.21289062 213.41088867 C-51.47980379 207.68290185 -55.79439292 201.99246958 -60.125 196.3125 C-60.75760742 195.48218262 -61.39021484 194.65186523 -62.04199219 193.79638672 C-67.34090376 186.84853216 -72.66885689 179.92312899 -78 173 C-77.99547569 173.834459 -77.99547569 173.834459 -77.99085999 174.68577576 C-77.96617104 180.51077026 -77.99060404 186.33413291 -78.04272461 192.15893555 C-78.05581077 194.32849253 -78.05664797 196.49816118 -78.04467773 198.66772461 C-78.02957803 201.79911562 -78.05948628 204.92745214 -78.09765625 208.05859375 C-78.08340103 209.01833603 -78.06914581 209.97807831 -78.05445862 210.96690369 C-78.21490961 218.54225462 -80.8782097 222.56661741 -86 228 C-86.60646866 228.66149048 -87.21293732 229.32298096 -87.83778381 230.0045166 C-91.77735339 234.21648423 -96.15147277 237.47030977 -101 240.5625 C-101.73041504 241.03284668 -102.46083008 241.50319336 -103.21337891 241.98779297 C-113.33199538 248.31220115 -123.98803691 253 -136 253 C-136 196.9 -136 140.8 -136 83 C-123.54521881 80.50904376 -109.47282807 87.50610535 -99 94 C-86.0798806 102.70083066 -75.59534916 113.80958145 -66 126 C-65.12631171 127.10547636 -64.25261342 128.21094482 -63.37890625 129.31640625 C-60.12318122 133.44502197 -56.88429866 137.58676346 -53.6484375 141.73095703 C-52.30847103 143.44656469 -50.96716224 145.16110966 -49.625 146.875 C-49.17729248 147.44710205 -48.72958496 148.0192041 -48.26831055 148.60864258 C-45.26182556 152.4354161 -42.19670142 156.20937251 -39.10620117 159.96850586 C-31.95181293 168.67833242 -25.25379719 177.61930421 -19 187 C-18.67 153.67 -18.34 120.34 -18 86 C-26.91 87.98 -35.82 89.96 -45 92 C-47.31 92 -49.62 92 -52 92 C-51.48696916 87.45932514 -50.41022963 84.59707722 -47.83984375 80.8359375 C-44.12959836 75.23981629 -40.82259264 69.49177969 -37.5625 63.625 C-33.50397639 56.37676933 -29.35383895 49.24090909 -24.94140625 42.203125 C-22.59951243 38.3392358 -20.42270391 34.39823796 -18.25 30.4375 C-14.45192961 23.51803554 -10.5008372 16.70466873 -6.4375 9.9375 C-5.9125293 9.062146 -5.38755859 8.18679199 -4.84667969 7.28491211 C-1.13560521 1.13560521 -1.13560521 1.13560521 0 0 Z " fill="#358997" transform="translate(417,37)"/>
<path d="M0 0 C1 1 1 1 1.11352539 4.41821289 C1.11336628 5.93636988 1.10767226 7.45453229 1.09765625 8.97265625 C1.0962413 9.77029892 1.09482635 10.56794159 1.09336853 11.38975525 C1.08775316 13.94737435 1.07519812 16.50490718 1.0625 19.0625 C1.05748698 20.79231645 1.05292373 22.52213426 1.04882812 24.25195312 C1.03777875 28.50133553 1.02050386 32.75065312 1 37 C-2.8648937 39.13297629 -6.22772487 39.27427409 -10.5625 39.375 C-21.78981939 39.89105249 -30.87087766 42.94307235 -39 51 C-50.92259253 64.8294369 -54.01613137 76.68336913 -53.22216797 94.54589844 C-52.20643988 105.76578719 -45.32211082 116.13920797 -37.3125 123.75 C-26.83434795 132.3396479 -15.55483695 134.94042044 -2.40625 135.75390625 C0 136 0 136 1 137 C1.08855161 139.6662603 1.11524673 142.30647114 1.09765625 144.97265625 C1.0962413 145.77029892 1.09482635 146.56794159 1.09336853 147.38975525 C1.08775316 149.94737435 1.07519812 152.50490718 1.0625 155.0625 C1.05748698 156.79231645 1.05292373 158.52213426 1.04882812 160.25195312 C1.03777875 164.50133553 1.02050386 168.75065312 1 173 C-1.67722825 173.03915957 -4.35387055 173.06749524 -7.03125 173.08984375 C-7.77922852 173.10188843 -8.52720703 173.11393311 -9.29785156 173.12634277 C-26.12886238 173.2313084 -40.36854032 165.12290003 -54 156 C-53.99777939 157.07519394 -53.99555878 158.15038788 -53.99327087 159.25816345 C-53.9730401 169.36784201 -53.95802817 179.47751648 -53.94818783 189.58721066 C-53.94295884 194.78528115 -53.9358609 199.98333536 -53.92456055 205.18139648 C-53.91373224 210.19342268 -53.90772329 215.20543318 -53.90512276 220.21747017 C-53.90326841 222.13412282 -53.8996476 224.05077457 -53.89426994 225.96742058 C-53.88706025 228.64228072 -53.88600903 231.31707514 -53.88647461 233.99194336 C-53.88287933 234.7925116 -53.87928406 235.59307983 -53.87557983 236.41790771 C-53.88594784 241.88594784 -53.88594784 241.88594784 -55 243 C-58.01808063 243.101137 -61.01280513 243.13968909 -64.03125 243.1328125 C-64.93750122 243.13376923 -65.84375244 243.13472595 -66.77746582 243.13571167 C-68.69751047 243.13639353 -70.61755741 243.13453882 -72.53759766 243.13037109 C-75.48735704 243.12502292 -78.43696414 243.13031588 -81.38671875 243.13671875 C-83.24739617 243.13605797 -85.1080735 243.13477681 -86.96875 243.1328125 C-88.30153992 243.13584885 -88.30153992 243.13584885 -89.66125488 243.13894653 C-95.88505012 243.11494988 -95.88505012 243.11494988 -97 242 C-97.10026018 238.93039145 -97.13437673 235.88320272 -97.12698364 232.81311035 C-97.12854363 231.83699248 -97.13010362 230.86087461 -97.13171089 229.8551774 C-97.13572543 226.55773349 -97.13252949 223.26033495 -97.12939453 219.96289062 C-97.13074837 217.6097155 -97.1325282 215.25654059 -97.13470459 212.90336609 C-97.13928099 206.49240034 -97.13748852 200.08145059 -97.1343255 193.67048454 C-97.13165874 187.65515815 -97.13378434 181.63983206 -97.1352527 175.62450558 C-97.1381076 162.98441898 -97.13482032 150.34433962 -97.12945233 137.70425421 C-97.12498428 126.84694059 -97.12576021 115.98963765 -97.13037109 105.13232422 C-97.13571669 92.53897917 -97.1378329 79.94564047 -97.13475883 67.35229445 C-97.13317463 60.68052404 -97.13300363 54.00876006 -97.13629532 47.33699036 C-97.13917275 41.06623917 -97.1372007 34.79550827 -97.13140106 28.52475929 C-97.13007277 26.21599677 -97.13046873 23.90723255 -97.13266373 21.59847069 C-97.13537255 18.46125353 -97.1319974 15.32410252 -97.12698364 12.18688965 C-97.12921436 11.26054797 -97.13144509 10.33420629 -97.13374341 9.37979364 C-97.11414981 3.11414981 -97.11414981 3.11414981 -96 2 C-93.06634254 1.88646984 -90.15711538 1.83581292 -87.22265625 1.83203125 C-86.34097275 1.82870285 -85.45928925 1.82537445 -84.55088806 1.82194519 C-82.68212406 1.81687217 -80.81335096 1.81453698 -78.94458008 1.81469727 C-76.07813656 1.81251192 -73.2120784 1.79436345 -70.34570312 1.77539062 C-68.53385549 1.77245661 -66.72200602 1.77047187 -64.91015625 1.76953125 C-63.61791893 1.75875298 -63.61791893 1.75875298 -62.29957581 1.74775696 C-56.2288216 1.7711784 -56.2288216 1.7711784 -54 4 C-53.8046875 7.2578125 -53.8046875 7.2578125 -53.875 11.125 C-53.89304688 12.40632812 -53.91109375 13.68765625 -53.9296875 15.0078125 C-53.95289063 15.99523437 -53.97609375 16.98265625 -54 18 C-53.18917969 17.40832031 -52.37835938 16.81664062 -51.54296875 16.20703125 C-36.08884311 5.09886428 -19.26526114 -0.80271921 0 0 Z " fill="#327E97" transform="translate(273,118)"/>
<path d="M0 0 C0.33 0 0.66 0 1 0 C1 12.54 1 25.08 1 38 C2.98 38.33 4.96 38.66 7 39 C7 39.66 7 40.32 7 41 C7.73476563 41.26554687 8.46953125 41.53109375 9.2265625 41.8046875 C19.93475974 46.41976969 27.60834198 55.8869212 32.0703125 66.37109375 C33.22320827 69.63117295 33.70136544 72.56570254 34 76 C34.33 76.33 34.66 76.66 35 77 C35.77929409 94.0986291 32.81508578 106.45420148 21.4375 119.5 C16.65359379 124.69496778 11.63811848 128.48684652 5 131 C3.68 131 2.36 131 1 131 C1 143.87 1 156.74 1 170 C0.67 170 0.34 170 0 170 C0 113.9 0 57.8 0 0 Z " fill="#90BEC8" transform="translate(281,120)"/>
<path d="M0 0 C1.29997925 0.00303635 1.29997925 0.00303635 2.6262207 0.00613403 C3.51027588 0.00517731 4.39433105 0.00422058 5.30517578 0.00323486 C7.178142 0.00255302 9.05111056 0.0044076 10.92407227 0.00857544 C13.80140458 0.01392364 16.67858078 0.0086306 19.5559082 0.00222778 C21.37101272 0.00288856 23.18611713 0.00416972 25.0012207 0.00613403 C25.86787354 0.0041098 26.73452637 0.00208557 27.62744141 0 C33.69877061 0.02399644 33.69877061 0.02399644 34.8137207 1.13894653 C35.18766644 6.88011344 34.79729367 12.48340197 33.8137207 18.13894653 C33.1537207 18.13894653 32.4937207 18.13894653 31.8137207 18.13894653 C31.8137207 13.18894653 31.8137207 8.23894653 31.8137207 3.13894653 C19.9337207 3.13894653 8.0537207 3.13894653 -4.1862793 3.13894653 C-4.1862793 80.68894653 -4.1862793 158.23894653 -4.1862793 238.13894653 C1.2587207 237.14894653 1.2587207 237.14894653 6.8137207 236.13894653 C14.7337207 236.46894653 22.6537207 236.79894653 30.8137207 237.13894653 C31.1437207 208.75894653 31.4737207 180.37894653 31.8137207 151.13894653 C32.4737207 151.13894653 33.1337207 151.13894653 33.8137207 151.13894653 C36.3802255 162.76462925 35.96503261 174.93239837 35.9465332 186.78347778 C35.94720873 188.33049027 35.94818082 189.87750265 35.94943237 191.42451477 C35.9508919 194.63215162 35.94880785 197.83976027 35.9440918 201.0473938 C35.93833238 205.1654799 35.94172317 209.28350171 35.94766426 213.40158558 C35.95126405 216.57988478 35.95013508 219.75816848 35.94753647 222.93646812 C35.94686881 224.45678401 35.94769003 225.97710129 35.95001602 227.49741554 C35.95253968 229.60558494 35.94870901 231.71364656 35.94311523 233.82180786 C35.94231964 235.02090286 35.94152405 236.21999786 35.94070435 237.45542908 C35.8137207 240.13894653 35.8137207 240.13894653 34.8137207 241.13894653 C31.79564007 241.24008353 28.80091558 241.27863562 25.7824707 241.27175903 C24.87621948 241.27271576 23.96996826 241.27367249 23.03625488 241.2746582 C21.11621023 241.27534007 19.19616329 241.27348535 17.27612305 241.26931763 C14.32636367 241.26396946 11.37675656 241.26926241 8.42700195 241.27566528 C6.56632453 241.2750045 4.70564721 241.27372334 2.8449707 241.27175903 C1.51218079 241.27479538 1.51218079 241.27479538 0.15246582 241.27789307 C-6.07132941 241.25389642 -6.07132941 241.25389642 -7.1862793 240.13894653 C-7.28653948 237.06933799 -7.32065602 234.02214926 -7.31326294 230.95205688 C-7.31482293 229.97593901 -7.31638292 228.99982114 -7.31799018 227.99412394 C-7.32200473 224.69668002 -7.31880879 221.39928148 -7.31567383 218.10183716 C-7.31702767 215.74866204 -7.3188075 213.39548713 -7.32098389 211.04231262 C-7.32556028 204.63134687 -7.32376782 198.22039713 -7.3206048 191.80943108 C-7.31793804 185.79410468 -7.32006364 179.77877859 -7.321532 173.76345211 C-7.32438689 161.12336551 -7.32109962 148.48328615 -7.31573163 135.84320074 C-7.31126358 124.98588712 -7.31203951 114.12858418 -7.31665039 103.27127075 C-7.32199598 90.6779257 -7.3241122 78.084587 -7.32103813 65.49124098 C-7.31945392 58.81947058 -7.31928293 52.1477066 -7.32257462 45.47593689 C-7.32545205 39.2051857 -7.32348 32.93445481 -7.31768036 26.66370583 C-7.31635207 24.3549433 -7.31674803 22.04617908 -7.31894302 19.73741722 C-7.32165184 16.60020006 -7.3182767 13.46304906 -7.31326294 10.32583618 C-7.31549366 9.3994945 -7.31772438 8.47315282 -7.3200227 7.51874018 C-7.2973139 0.25691532 -7.28616905 0.028798 0 0 Z " fill="#587C87" transform="translate(183.186279296875,119.86105346679688)"/>
<path d="M0 0 C2.33789062 0.07983398 2.33789062 0.07983398 5 1 C6.86523438 3.46508789 6.86523438 3.46508789 8.59375 6.72265625 C8.90775757 7.30156113 9.22176514 7.880466 9.54528809 8.47691345 C10.54657393 10.33052132 11.52376337 12.19559811 12.5 14.0625 C13.4787866 15.89706026 14.46239594 17.7289624 15.44702148 19.56039429 C16.38881379 21.3151686 17.32338407 23.07381286 18.2578125 24.83251953 C19.7540877 27.55290553 21.33224245 30.15006184 23.03125 32.74609375 C23.6809375 33.81988281 24.330625 34.89367187 25 36 C24.505 36.99 24.505 36.99 24 38 C23.38125 37.814375 22.7625 37.62875 22.125 37.4375 C19.95839822 36.76313824 19.95839822 36.76313824 18 38 C17.34 37.67 16.68 37.34 16 37 C15.39923744 34.72600246 15.0436846 32.44869424 14.66015625 30.12890625 C14.13111321 27.63209975 14.13111321 27.63209975 11 26 C11.0928125 24.7315625 11.0928125 24.7315625 11.1875 23.4375 C10.91369777 18.41779251 8.3650022 14.68430898 5 11 C4.01 11 3.02 11 2 11 C0.32900023 10.68911632 -1.33871537 10.35919668 -3 10 C-3.103125 10.53625 -3.20625 11.0725 -3.3125 11.625 C-4 14 -4 14 -5.5625 17.0625 C-7.21977643 19.90404688 -7.21977643 19.90404688 -7 23 C-7.9087832 25.6564432 -8.95407302 27.92611747 -10.4375 30.3125 C-12.12224741 33.21026554 -13.13472546 36.05036558 -14.15625 39.23046875 C-15 41 -15 41 -18 43 C-19.32 43 -20.64 43 -22 43 C-22.12117188 43.69867188 -22.24234375 44.39734375 -22.3671875 45.1171875 C-22.53476562 46.02726562 -22.70234375 46.93734375 -22.875 47.875 C-23.03742188 48.77992187 -23.19984375 49.68484375 -23.3671875 50.6171875 C-24 53 -24 53 -26 55 C-25.67 55.66 -25.34 56.32 -25 57 C-25.66 57 -26.32 57 -27 57 C-27 57.66 -27 58.32 -27 59 C-27.66 59 -28.32 59 -29 59 C-29.0825 59.53625 -29.165 60.0725 -29.25 60.625 C-30.27581271 63.87340691 -31.96563894 66.28751859 -34 69 C-34.66 69 -35.32 69 -36 69 C-36 69.99 -36 70.98 -36 72 C-36.99 72 -37.98 72 -39 72 C-39.66 73.98 -40.32 75.96 -41 78 C-41.66 78 -42.32 78 -43 78 C-43.88953061 81.30397085 -44.44977693 84.62468199 -45 88 C-43.75605469 87.72285156 -42.51210938 87.44570312 -41.23046875 87.16015625 C-32.51089186 85.25069592 -23.94749019 83.40213439 -15 83 C-15.66 84.98 -16.32 86.96 -17 89 C-17.33 88.01 -17.66 87.02 -18 86 C-18.78125244 86.18175781 -19.56250488 86.36351563 -20.36743164 86.55078125 C-23.93068114 87.37508157 -27.49651131 88.18763521 -31.0625 89 C-32.29162109 89.28617187 -33.52074219 89.57234375 -34.78710938 89.8671875 C-36.58051758 90.27324219 -36.58051758 90.27324219 -38.41015625 90.6875 C-39.50465088 90.93886719 -40.59914551 91.19023437 -41.72680664 91.44921875 C-45.20764679 92.03494079 -48.47676972 92.09358885 -52 92 C-51.48696916 87.45932514 -50.41022963 84.59707722 -47.83984375 80.8359375 C-44.12959836 75.23981629 -40.82259264 69.49177969 -37.5625 63.625 C-33.50397639 56.37676933 -29.35383895 49.24090909 -24.94140625 42.203125 C-22.59951243 38.3392358 -20.42270391 34.39823796 -18.25 30.4375 C-14.45192961 23.51803554 -10.5008372 16.70466873 -6.4375 9.9375 C-5.9125293 9.062146 -5.38755859 8.18679199 -4.84667969 7.28491211 C-1.13560521 1.13560521 -1.13560521 1.13560521 0 0 Z " fill="#3D7C81" transform="translate(417,37)"/>
<path d="M0 0 C0.763125 0.20625 1.52625 0.4125 2.3125 0.625 C2.3125 1.285 2.3125 1.945 2.3125 2.625 C0.9925 2.625 -0.3275 2.625 -1.6875 2.625 C-1.6875 57.405 -1.6875 112.185 -1.6875 168.625 C-13.5675 168.625 -25.4475 168.625 -37.6875 168.625 C-38.3475 167.305 -39.0075 165.985 -39.6875 164.625 C-38.6975 164.955 -37.7075 165.285 -36.6875 165.625 C-34.43797322 165.67114414 -32.18717961 165.66296928 -29.9375 165.625 C-22.14548045 165.5403146 -14.45411549 166.00807735 -6.6875 166.625 C-6.0275 162.335 -5.3675 158.045 -4.6875 153.625 C-5.3475 153.625 -6.0075 153.625 -6.6875 153.625 C-6.71715964 149.43751555 -6.7345151 145.25005895 -6.75 141.0625 C-6.75837891 139.90041016 -6.76675781 138.73832031 -6.77539062 137.54101562 C-6.79135329 131.74656698 -6.67285518 126.02984209 -6.1809082 120.25537109 C-5.47960477 110.08348635 -5.60806883 99.91965912 -5.67346573 89.72862816 C-5.69571884 86.10174278 -5.70964404 82.47491123 -5.72116089 78.84797668 C-5.75456585 68.54823546 -5.79683605 58.24858568 -5.85888672 47.94897461 C-5.89641266 41.6228845 -5.91951161 35.29688203 -5.93319321 28.9706974 C-5.94126244 26.56361736 -5.95489219 24.15654943 -5.97412491 21.7495327 C-6.00043891 18.40346559 -6.00848092 15.05782717 -6.01220703 11.71166992 C-6.0245639 10.71384491 -6.03692078 9.7160199 -6.0496521 8.68795776 C-6.04563385 7.32801445 -6.04563385 7.32801445 -6.04153442 5.94059753 C-6.04559862 5.15074557 -6.04966282 4.36089361 -6.05385017 3.54710674 C-5.93295462 2.91281152 -5.81205906 2.27851629 -5.6875 1.625 C-2.6875 -0.375 -2.6875 -0.375 0 0 Z " fill="#4A7C84" transform="translate(439.6875,120.375)"/>
<path d="M0 0 C0.66 0 1.32 0 2 0 C4.5665048 11.62568271 4.15131191 23.79345183 4.1328125 35.64453125 C4.13348803 37.19154373 4.13446012 38.73855611 4.13571167 40.28556824 C4.1371712 43.49320508 4.13508714 46.70081374 4.13037109 49.90844727 C4.12461168 54.02653337 4.12800246 58.14455517 4.13394356 62.26263905 C4.13754335 65.44093824 4.13641437 68.61922195 4.13381577 71.79752159 C4.1331481 73.31783748 4.13396933 74.83815476 4.13629532 76.35846901 C4.13881897 78.4666384 4.1349883 80.57470003 4.12939453 82.68286133 C4.12859894 83.88195633 4.12780334 85.08105133 4.12698364 86.31648254 C4 89 4 89 3 90 C0.2961179 90.10104763 -2.38166513 90.13970023 -5.0859375 90.1328125 C-6.30502304 90.13424759 -6.30502304 90.13424759 -7.54873657 90.13571167 C-9.27207517 90.13639361 -10.99541631 90.13453838 -12.71875 90.13037109 C-15.35682975 90.12503674 -17.99473818 90.13030848 -20.6328125 90.13671875 C-22.30468788 90.1360577 -23.97656315 90.13477598 -25.6484375 90.1328125 C-26.43914642 90.13483673 -27.22985535 90.13686096 -28.04452515 90.13894653 C-31.28947132 90.12507375 -33.89952916 90.03349028 -37 89 C-36.67 88.01 -36.34 87.02 -36 86 C-33.54217866 85.79777419 -31.08474637 85.61350659 -28.625 85.4375 C-27.635 85.35338867 -27.635 85.35338867 -26.625 85.26757812 C-17.93816254 84.67529375 -9.90035062 85.50553608 -1 86 C-0.67 57.62 -0.34 29.24 0 0 Z " fill="#386979" transform="translate(215,271)"/>
<path d="M0 0 C0.33 0 0.66 0 1 0 C1 12.54 1 25.08 1 38 C2.32 38.33 3.64 38.66 5 39 C4.34 39 3.68 39 3 39 C3 69.36 3 99.72 3 131 C2.34 131 1.68 131 1 131 C1 143.87 1 156.74 1 170 C0.67 170 0.34 170 0 170 C0 113.9 0 57.8 0 0 Z " fill="#A5B8C0" transform="translate(281,120)"/>
<path d="M0 0 C0.66 0 1.32 0 2 0 C2 34.98 2 69.96 2 106 C1.01 105.67 0.02 105.34 -1 105 C-1.0231206 91.45735822 -1.04091364 77.9147211 -1.05181217 64.37206364 C-1.05704162 58.08437976 -1.06414039 51.79670934 -1.07543945 45.5090332 C-1.08626614 39.44662277 -1.09227637 33.38422531 -1.09487724 27.32180595 C-1.09673189 25.00323723 -1.10035325 22.68466926 -1.10573006 20.36610603 C-1.11293758 17.13085492 -1.11399106 13.89565817 -1.11352539 10.66040039 C-1.11712067 9.69151886 -1.12071594 8.72263733 -1.12442017 7.72439575 C-1.1230455 6.84794907 -1.12167084 5.97150238 -1.12025452 5.0684967 C-1.12117631 4.30248673 -1.1220981 3.53647676 -1.12304783 2.74725437 C-1 1 -1 1 0 0 Z " fill="#3D6E77" transform="translate(401,122)"/>
<path d="M0 0 C1.32 0 2.64 0 4 0 C4 11.88 4 23.76 4 36 C-12.56620309 36 -23.32761886 34.71682732 -37.375 27.5 C-38.11943359 27.12045166 -38.86386719 26.74090332 -39.63085938 26.34985352 C-41.7109375 25.21875 -41.7109375 25.21875 -45 23 C-45.33 21.68 -45.66 20.36 -46 19 C-41.545 19.99 -41.545 19.99 -37 21 C-37 21.66 -37 22.32 -37 23 C-34.525 23.99 -34.525 23.99 -32 25 C-32 25.66 -32 26.32 -32 27 C-27.89776415 28.01540112 -27.89776415 28.01540112 -24 27 C-22.66666667 27.66666667 -21.33333333 28.33333333 -20 29 C-18.00889599 29.38290462 -16.00899487 29.72604615 -14 30 C-14 30.66 -14 31.32 -14 32 C-12.04233719 32.08082094 -10.08373272 32.13910778 -8.125 32.1875 C-7.03445313 32.22230469 -5.94390625 32.25710938 -4.8203125 32.29296875 C-3.42425781 32.14794922 -3.42425781 32.14794922 -2 32 C0.42204038 28.36693942 0.23302891 26.68180977 0.1953125 22.36328125 C0.18564453 20.41518555 0.18564453 20.41518555 0.17578125 18.42773438 C0.1590706 17.05598693 0.14214071 15.68424214 0.125 14.3125 C0.11496674 12.92904282 0.10584149 11.54557873 0.09765625 10.16210938 C0.07404967 6.77456548 0.04112037 3.38736928 0 0 Z " fill="#387083" transform="translate(270,255)"/>
<path d="M0 0 C2.97552094 0.68623638 5.81907495 0.58126238 8.8671875 0.55078125 C10.03765625 0.54175781 11.208125 0.53273437 12.4140625 0.5234375 C13.30609375 0.51183594 14.198125 0.50023437 15.1171875 0.48828125 C14.7871875 1.14828125 14.4571875 1.80828125 14.1171875 2.48828125 C12.9003125 2.44703125 11.6834375 2.40578125 10.4296875 2.36328125 C-2.05036278 2.42214941 -13.66092314 4.86954039 -23.08984375 13.4921875 C-33.00843344 24.53445184 -38.05939889 35.48308064 -38.0703125 50.23828125 C-38.08255859 51.09421875 -38.09480469 51.95015625 -38.10742188 52.83203125 C-38.12070875 58.67825476 -37.33346904 63.82326679 -35.8828125 69.48828125 C-41.7049402 62.35147955 -40.90046044 57.80152052 -40.5703125 48.73828125 C-40.53486328 47.46210938 -40.49941406 46.1859375 -40.46289062 44.87109375 C-40.39811523 43.01871094 -40.39811523 43.01871094 -40.33203125 41.12890625 C-40.29424561 40.00000977 -40.25645996 38.87111328 -40.2175293 37.70800781 C-39.87102442 34.37488867 -39.04200192 31.62237561 -37.8828125 28.48828125 C-37.53304492 27.15916443 -37.19185233 25.82745386 -36.8828125 24.48828125 C-36.2228125 24.48828125 -35.5628125 24.48828125 -34.8828125 24.48828125 C-34.5734375 23.00328125 -34.5734375 23.00328125 -34.2578125 21.48828125 C-32.93870695 16.81405942 -30.22158854 12.98129423 -26.8828125 9.48828125 C-26.2228125 9.48828125 -25.5628125 9.48828125 -24.8828125 9.48828125 C-24.5528125 8.49828125 -24.2228125 7.50828125 -23.8828125 6.48828125 C-22.23076794 5.78616231 -20.56357481 5.11856712 -18.8828125 4.48828125 C-18.5528125 3.82828125 -18.2228125 3.16828125 -17.8828125 2.48828125 C-12.53101661 -1.07958268 -6.1972734 -1.68432119 0 0 Z " fill="#3A788C" transform="translate(257.8828125,154.51171875)"/>
<path d="M0 0 C3.92762579 2.9006141 6.71114497 5.96712085 9.625 9.875 C10.49533393 11.0305206 11.36645712 12.18544707 12.23828125 13.33984375 C12.68768066 13.93780762 13.13708008 14.53577148 13.60009766 15.15185547 C15.96682168 18.27639346 18.38894676 21.35696442 20.8125 24.4375 C21.47789795 25.28707275 21.47789795 25.28707275 22.15673828 26.15380859 C24.32667008 28.91531775 26.5320291 31.62396032 28.82421875 34.28515625 C31 37 31 37 31 39 C29.68 39 28.36 39 27 39 C27 38.34 27 37.68 27 37 C25.515 36.505 25.515 36.505 24 36 C24 35.34 24 34.68 24 34 C23.236875 33.79375 22.47375 33.5875 21.6875 33.375 C18.14965056 31.5649375 17.43654975 29.62917831 16 26 C16 25.34 16 24.68 16 24 C14.35 23.67 12.7 23.34 11 23 C10.7525 22.05125 10.505 21.1025 10.25 20.125 C8.82576013 16.56440032 8.28284113 16.48257341 5 15 C4.63837971 13.67405895 4.30271961 12.34061543 4 11 C3.01 10.67 2.02 10.34 1 10 C0.234375 8.22265625 0.234375 8.22265625 -0.25 6.0625 C-0.42015625 5.35222656 -0.5903125 4.64195312 -0.765625 3.91015625 C-1 2 -1 2 0 0 Z " fill="#447B88" transform="translate(347,160)"/>
<path d="M0 0 C0.33 0 0.66 0 1 0 C1 54.45 1 108.9 1 165 C-10.55 165 -22.1 165 -34 165 C-34.66 163.68 -35.32 162.36 -36 161 C-34.35 161.66 -32.7 162.32 -31 163 C-21.1 163 -11.2 163 -1 163 C-0.67 109.21 -0.34 55.42 0 0 Z " fill="#3C686F" transform="translate(436,124)"/>
<path d="M0 0 C1 1 1 1 1.11352539 4.41821289 C1.11336628 5.93636988 1.10767226 7.45453229 1.09765625 8.97265625 C1.0962413 9.77029892 1.09482635 10.56794159 1.09336853 11.38975525 C1.08775316 13.94737435 1.07519812 16.50490718 1.0625 19.0625 C1.05748698 20.79231645 1.05292373 22.52213426 1.04882812 24.25195312 C1.03862791 28.50136239 1.01905568 32.75058416 1 37 C-9.395 37.495 -9.395 37.495 -20 38 C-15.76188568 34.82141426 -14.0846897 34.53523049 -9 34 C-7.33065717 33.68033861 -5.6626783 33.35268934 -4 33 C-2.78174143 27.0827441 -2.66352622 21.14248484 -2.4375 15.125 C-2.39431641 14.05507812 -2.35113281 12.98515625 -2.30664062 11.8828125 C-2.20107257 9.25534097 -2.10008205 6.62768622 -2 4 C-7.28 4 -12.56 4 -18 4 C-16.68 3.67 -15.36 3.34 -14 3 C-14 2.34 -14 1.68 -14 1 C-9.28211812 0.22973357 -4.78252409 -0.19130096 0 0 Z " fill="#40626E" transform="translate(273,118)"/>
<path d="M0 0 C0.7425 0.804375 1.485 1.60875 2.25 2.4375 C4.66288759 5.11536182 4.66288759 5.11536182 7.1875 5.5 C7.785625 5.665 8.38375 5.83 9 6 C10.25290395 8.44316271 11 10.24525395 11 13 C12.65 13.33 14.3 13.66 16 14 C16 15.65 16 17.3 16 19 C17.32 19.33 18.64 19.66 20 20 C20 21.32 20 22.64 20 24 C20.66 24 21.32 24 22 24 C23.58255197 28.32564205 24.45144652 32.428721 25 37 C21.31948557 33.56311301 18.41793308 29.72087723 15.4375 25.6875 C14.92026367 24.99269531 14.40302734 24.29789063 13.87011719 23.58203125 C8.54342172 16.41508701 3.26446559 9.21273239 -2 2 C-1.34 1.34 -0.68 0.68 0 0 Z " fill="#52818D" transform="translate(356,227)"/>
<path d="M0 0 C9.03508772 4.12280702 9.03508772 4.12280702 12 8 C12.70381157 9.98723268 13.3711811 11.98777953 14 14 C14.97581759 15.35113205 15.97029741 16.68946944 17 18 C17 18.66 17 19.32 17 20 C17.66 20 18.32 20 19 20 C18 22 18 22 16 24 C15.32453125 23.11957031 14.6490625 22.23914063 13.953125 21.33203125 C13.05210954 20.15883404 12.1510664 18.98565808 11.25 17.8125 C10.58484375 16.9452832 10.58484375 16.9452832 9.90625 16.06054688 C9.46796875 15.49013672 9.0296875 14.91972656 8.578125 14.33203125 C8.18012695 13.81358643 7.78212891 13.2951416 7.37207031 12.76098633 C5.60292443 10.49037258 3.79816318 8.24770397 2 6 C1.67 21.18 1.34 36.36 1 52 C0.67 52 0.34 52 0 52 C-0.16781579 44.7552738 -0.32778113 37.5104054 -0.48217773 30.26538086 C-0.53568795 27.79854365 -0.59102393 25.33174536 -0.64819336 22.86499023 C-0.72985335 19.32804767 -0.80503753 15.79101902 -0.87890625 12.25390625 C-0.90594131 11.14350479 -0.93297638 10.03310333 -0.96083069 8.88905334 C-0.98092697 7.86807053 -1.00102325 6.84708771 -1.02172852 5.79516602 C-1.04171402 4.89137711 -1.06169952 3.9875882 -1.08229065 3.05641174 C-1 1 -1 1 0 0 Z " fill="#7AA2AB" transform="translate(337,204)"/>
<path d="M0 0 C2 1 2 1 2 1 Z M-8 1 C-5.36 1 -2.72 1 0 1 C-0.65194336 1.8470752 -1.30388672 2.69415039 -1.97558594 3.56689453 C-4.26714242 7.45303385 -4.46955562 9.47010752 -4.390625 13.9296875 C-4.37773437 15.21875 -4.36484375 16.5078125 -4.3515625 17.8359375 C-4.31814906 19.18230268 -4.28428937 20.52865685 -4.25 21.875 C-4.22991356 23.24476569 -4.21166655 24.61455966 -4.1953125 25.984375 C-4.1482806 29.32363986 -4.08255864 32.66145562 -4 36 C-1.03 35.505 -1.03 35.505 2 35 C1.67 35.99 1.34 36.98 1 38 C0.34 38 -0.32 38 -1 38 C-1 38.66 -1 39.32 -1 40 C-3.31 40 -5.62 40 -8 40 C-8 27.13 -8 14.26 -8 1 Z " fill="#366570" transform="translate(290,250)"/>
<path d="M0 0 C2.27539062 0.14233398 2.27539062 0.14233398 5 1 C6.86523438 3.46508789 6.86523438 3.46508789 8.59375 6.72265625 C8.90775757 7.30156113 9.22176514 7.880466 9.54528809 8.47691345 C10.54657393 10.33052132 11.52376337 12.19559811 12.5 14.0625 C13.4787866 15.89706026 14.46239594 17.7289624 15.44702148 19.56039429 C16.38881379 21.3151686 17.32338407 23.07381286 18.2578125 24.83251953 C19.7540877 27.55290553 21.33224245 30.15006184 23.03125 32.74609375 C23.6809375 33.81988281 24.330625 34.89367187 25 36 C24.67 36.66 24.34 37.32 24 38 C23.38125 37.814375 22.7625 37.62875 22.125 37.4375 C19.95839822 36.76313824 19.95839822 36.76313824 18 38 C17.34 37.67 16.68 37.34 16 37 C15.39923744 34.72600246 15.0436846 32.44869424 14.66015625 30.12890625 C14.13111321 27.63209975 14.13111321 27.63209975 11 26 C10.84765625 24.01171875 10.84765625 24.01171875 11.0625 21.6875 C11.24603524 17.10646038 10.12011016 15.41262049 7 12 C7 10.68 7 9.36 7 8 C6.34 8 5.68 8 5 8 C3.515 5.03 3.515 5.03 2 2 C1.01 2.33 0.02 2.66 -1 3 C-0.67 2.01 -0.34 1.02 0 0 Z " fill="#4C8E8E" transform="translate(417,37)"/>
<path d="M0 0 C0.33 0 0.66 0 1 0 C2.06551275 9.11510846 2.14696223 18.18856524 2.1328125 27.3515625 C2.13348745 28.9028627 2.13445907 30.4541628 2.13571167 32.00546265 C2.13717524 35.23102847 2.13507464 38.45656636 2.13037109 41.68212891 C2.12462641 45.82384224 2.12799087 49.96549145 2.13394356 54.10720253 C2.13754477 57.29837535 2.13641346 60.48953276 2.13381577 63.68070602 C2.13314774 65.20939517 2.13397058 66.7380857 2.13629532 68.26677322 C2.13881976 70.38963845 2.13498649 72.51239671 2.12939453 74.63525391 C2.12859894 75.84339752 2.12780334 77.05154114 2.12698364 78.29629517 C2 81 2 81 1 82 C-0.99958364 82.04080783 -3.00045254 82.04254356 -5 82 C-5 81.34 -5 80.68 -5 80 C-3.68 80 -2.36 80 -1 80 C-0.67 53.6 -0.34 27.2 0 0 Z " fill="#70A3B2" transform="translate(217,279)"/>
<path d="M0 0 C0.66 0.33 1.32 0.66 2 1 C2.02475223 6.88988947 2.04288482 12.77974854 2.05493164 18.66967773 C2.05995478 20.67261279 2.06677445 22.67554419 2.07543945 24.6784668 C2.08759345 27.56039331 2.09324857 30.44227125 2.09765625 33.32421875 C2.10281754 34.21711105 2.10797882 35.11000336 2.11329651 36.029953 C2.113667 40.1527264 2.04768418 43.97964792 1 48 C0.34 48 -0.32 48 -1 48 C-1 48.99 -1 49.98 -1 51 C-1.66 51 -2.32 51 -3 51 C-3.0270043 49.54176788 -3.04639787 48.08339325 -3.0625 46.625 C-3.07410156 45.81289062 -3.08570313 45.00078125 -3.09765625 44.1640625 C-3 42 -3 42 -2 40 C-1.71795865 37.86047418 -1.49707066 35.71262831 -1.3125 33.5625 C-1.20550781 32.40878906 -1.09851563 31.25507813 -0.98828125 30.06640625 C-0.71880508 26.82431632 -0.71880508 26.82431632 -3 24 C-3.125 21.3125 -3.125 21.3125 -3 19 C-2.67 19 -2.34 19 -2 19 C-1.34 12.73 -0.68 6.46 0 0 Z " fill="#3F6D7B" transform="translate(335,208)"/>
<path d="M0 0 C1.32 0 2.64 0 4 0 C4 11.55 4 23.1 4 35 C-1.28 35 -6.56 35 -12 35 C-12 34.67 -12 34.34 -12 34 C-6.06 33.505 -6.06 33.505 0 33 C0 22.11 0 11.22 0 0 Z " fill="#3B6771" transform="translate(270,255)"/>
<path d="M0 0 C3.69384257 3.41759222 5.7702547 7.57542397 8.1875 11.9375 C8.65091797 12.74896484 9.11433594 13.56042969 9.59179688 14.39648438 C10.02943359 15.18216797 10.46707031 15.96785156 10.91796875 16.77734375 C11.31781982 17.49140381 11.7176709 18.20546387 12.12963867 18.94116211 C13 21 13 21 13 25 C6.2142064 24.45136137 -0.35009036 23.45732062 -7 22 C-3.52926748 19.68617832 -2.87844371 19.89637976 1.0625 20.5 C3.65006107 20.94515141 3.65006107 20.94515141 6 21 C6.66 20.34 7.32 19.68 8 19 C7.34 18.05125 6.68 17.1025 6 16.125 C4 13 4 13 4 11 C3.01 11 2.02 11 1 11 C0.12132271 7.26562152 -0.08912219 3.83225427 0 0 Z " fill="#5F8787" transform="translate(459,104)"/>
<path d="M0 0 C0.66 0.33 1.32 0.66 2 1 C1.94875977 1.8470752 1.89751953 2.69415039 1.84472656 3.56689453 C1.6636345 6.73080682 1.50193346 9.8949691 1.35302734 13.06054688 C1.28485834 14.42651155 1.20912637 15.79212174 1.12548828 17.15722656 C1.00614352 19.12713411 0.91684359 21.09878824 0.828125 23.0703125 C0.7652832 24.25383301 0.70244141 25.43735352 0.63769531 26.65673828 C1.07815901 30.72123281 2.61882148 32.73791301 5 36 C5.25 38.875 5.25 38.875 5 41 C4.34 41 3.68 41 3 41 C2.33333333 39.66666667 1.66666667 38.33333333 1 37 C0.649375 36.319375 0.29875 35.63875 -0.0625 34.9375 C-1.70500562 31.54298839 -2.12794162 28.86058654 -2.1328125 25.140625 C-2.13410156 24.18929687 -2.13539063 23.23796875 -2.13671875 22.2578125 C-2.13285156 21.26523438 -2.12898437 20.27265625 -2.125 19.25 C-2.12886719 18.27289063 -2.13273438 17.29578125 -2.13671875 16.2890625 C-2.11761977 2.11761977 -2.11761977 2.11761977 0 0 Z " fill="#346676" transform="translate(217,188)"/>
<path d="M0 0 C0.33 1.32 0.66 2.64 1 4 C0.34 4 -0.32 4 -1 4 C-1.1546875 5.051875 -1.1546875 5.051875 -1.3125 6.125 C-2.10054272 9.42045139 -3.32869762 12.05850781 -5 15 C-5.99 15.495 -5.99 15.495 -7 16 C-7 16.66 -7 17.32 -7 18 C-6.01 18.33 -5.02 18.66 -4 19 C-5.2739589 21.03833424 -6.61061923 23.03852126 -8 25 C-8.66 25 -9.32 25 -10 25 C-10 25.99 -10 26.98 -10 28 C-10.99 28 -11.98 28 -13 28 C-13.33 28.66 -13.66 29.32 -14 30 C-13.01424656 21.95148568 -10.20596029 16.15782644 -5.875 9.375 C-5.31167969 8.46621094 -4.74835938 7.55742188 -4.16796875 6.62109375 C-2.79184873 4.40530727 -1.40265323 2.19904785 0 0 Z M0 7 C0.66 7 1.32 7 2 7 C1.649375 7.61875 1.29875 8.2375 0.9375 8.875 C0.4734375 9.926875 0.4734375 9.926875 0 11 C0.33 11.66 0.66 12.32 1 13 C0.34 13 -0.32 13 -1 13 C-1 13.66 -1 14.32 -1 15 C-1.66 15 -2.32 15 -3 15 C-3.33 15.99 -3.66 16.98 -4 18 C-4.42820102 14.36029133 -3.97413512 12.95430537 -2.125 9.6875 C-1.42375 8.800625 -0.7225 7.91375 0 7 Z " fill="#3E8389" transform="translate(391,81)"/>
<path d="M0 0 C0.69921875 1.73828125 0.69921875 1.73828125 1 4 C-0.29296875 6.04296875 -0.29296875 6.04296875 -2.1875 8.1875 C-9.51610754 17.06667121 -11.17918456 25.50751969 -11.1875 36.75 C-11.19974609 37.6059375 -11.21199219 38.461875 -11.22460938 39.34375 C-11.23789625 45.18997351 -10.45065654 50.33498554 -9 56 C-14.8221277 48.8631983 -14.01764794 44.31323927 -13.6875 35.25 C-13.65205078 33.97382813 -13.61660156 32.69765625 -13.58007812 31.3828125 C-13.51530273 29.53042969 -13.51530273 29.53042969 -13.44921875 27.640625 C-13.41143311 26.51172852 -13.37364746 25.38283203 -13.3347168 24.21972656 C-12.98821192 20.88660742 -12.15918942 18.13409436 -11 15 C-10.65023242 13.67088318 -10.30903983 12.33917261 -10 11 C-8.68 11 -7.36 11 -6 11 C-6 9.35 -6 7.7 -6 6 C-5.01 6 -4.02 6 -3 6 C-3 5.01 -3 4.02 -3 3 C-2.34 3 -1.68 3 -1 3 C-0.67 2.01 -0.34 1.02 0 0 Z " fill="#618A97" transform="translate(231,168)"/>
<path d="M0 0 C6.00169667 1.2334314 8.99599928 3.30671838 13.125 7.75 C13.62386719 8.26304687 14.12273437 8.77609375 14.63671875 9.3046875 C24 19.03467689 24 19.03467689 24 22 C22.0625 21.6875 22.0625 21.6875 20 21 C19.67 20.01 19.34 19.02 19 18 C18.34 18.33 17.68 18.66 17 19 C17 18.34 17 17.68 17 17 C16.34 17 15.68 17 15 17 C13.39771617 15.29059971 11.98705258 13.46698472 10.53515625 11.62890625 C8.99243114 9.73441742 8.99243114 9.73441742 6 9 C6 8.01 6 7.02 6 6 C5.34 6 4.68 6 4 6 C4 5.34 4 4.68 4 4 C2.35 4 0.7 4 -1 4 C-0.67 2.68 -0.34 1.36 0 0 Z " fill="#58858F" transform="translate(323,138)"/>
<path d="M0 0 C12.58274943 0.44149998 25.10195935 6.41019808 35 14 C35.495 14.99 35.495 14.99 36 16 C33.0625 15.625 33.0625 15.625 30 15 C29.67 14.34 29.34 13.68 29 13 C26.42588223 11.94508187 23.87290272 10.97913062 21.25 10.0625 C16.50471934 8.39397056 12.28244809 6.6867352 8 4 C6.57887565 3.39732423 5.14176366 2.83011927 3.6875 2.3125 C2.470625 1.879375 1.25375 1.44625 0 1 C0 0.67 0 0.34 0 0 Z " fill="#557E8A" transform="translate(287,120)"/>
<path d="M0 0 C0.66 0.33 1.32 0.66 2 1 C2 1.66 2 2.32 2 3 C2.66 3.33 3.32 3.66 4 4 C4 4.99 4 5.98 4 7 C4.66 7 5.32 7 6 7 C6.268125 7.7425 6.53625 8.485 6.8125 9.25 C7.86882225 12.02423915 7.86882225 12.02423915 9.6875 14.125 C10.120625 14.74375 10.55375 15.3625 11 16 C10.67 16.99 10.34 17.98 10 19 C9.60167969 18.3503125 9.20335937 17.700625 8.79296875 17.03125 C8.26316406 16.1959375 7.73335938 15.360625 7.1875 14.5 C6.40439453 13.24703125 6.40439453 13.24703125 5.60546875 11.96875 C4.81076172 10.99421875 4.81076172 10.99421875 4 10 C3.01 10 2.02 10 1 10 C-0.67099977 9.68911632 -2.33871537 9.35919668 -4 9 C-4.103125 9.598125 -4.20625 10.19625 -4.3125 10.8125 C-5.09423531 13.29983964 -6.1264074 14.24696028 -8 16 C-7.54857225 14.22739369 -7.08859477 12.4569632 -6.625 10.6875 C-6.36976563 9.70136719 -6.11453125 8.71523438 -5.8515625 7.69921875 C-5 5 -5 5 -3 2 C-2.01 2 -1.02 2 0 2 C0 1.34 0 0.68 0 0 Z " fill="#408282" transform="translate(418,38)"/>
<path d="M0 0 C4.30439925 0.47826658 6.30868598 2.75662157 9 6 C9.59173497 7.39649452 10.13303483 8.81531624 10.625 10.25 C11.07875 11.4875 11.5325 12.725 12 14 C12.99 14.33 13.98 14.66 15 15 C14.625 17.4375 14.625 17.4375 14 20 C13.34 20.33 12.68 20.66 12 21 C11.74605469 20.43410156 11.49210937 19.86820313 11.23046875 19.28515625 C10.88628906 18.55167969 10.54210937 17.81820312 10.1875 17.0625 C9.85105469 16.33160156 9.51460938 15.60070312 9.16796875 14.84765625 C8.06399866 12.66970511 8.06399866 12.66970511 5 12 C5 10.35 5 8.7 5 7 C4.360625 6.773125 3.72125 6.54625 3.0625 6.3125 C1 5 1 5 0.25 2.375 C0.1675 1.59125 0.085 0.8075 0 0 Z " fill="#477986" transform="translate(384,211)"/>
<path d="M0 0 C0.33 0 0.66 0 1 0 C1 4.62 1 9.24 1 14 C1.91523438 13.3503125 2.83046875 12.700625 3.7734375 12.03125 C4.97378605 11.18725492 6.17431634 10.34351827 7.375 9.5 C8.27992188 8.85611328 8.27992188 8.85611328 9.203125 8.19921875 C13.7734375 5 13.7734375 5 16 5 C16.33 6.32 16.66 7.64 17 9 C11.25 12 11.25 12 9 12 C8.67 12.99 8.34 13.98 8 15 C6.35 15.33 4.7 15.66 3 16 C2.67 16.99 2.34 17.98 2 19 C0.68 18.34 -0.64 17.68 -2 17 C-1.34 11.39 -0.68 5.78 0 0 Z " fill="#7295A2" transform="translate(218,122)"/>
<path d="M0 0 C2.475 1.485 2.475 1.485 5 3 C3.67957799 6.96126602 1.88112938 7.77607419 -1.60546875 9.85546875 C-6.79554439 12.33620637 -12.41609942 13.76738138 -18 12 C-15.01501603 9.10829677 -12.96695671 7.79443969 -8.875 7.5 C-4.97729117 7.42238875 -4.97729117 7.42238875 -3.125 4.9375 C-2.75375 4.298125 -2.3825 3.65875 -2 3 C-1.34 3 -0.68 3 0 3 C0 2.01 0 1.02 0 0 Z " fill="#407583" transform="translate(313,271)"/>
<path d="M0 0 C4.90940451 3.42170617 8.88475375 7.90069202 12 13 C12 14.32 12 15.64 12 17 C9.125 16.8125 9.125 16.8125 6 16 C4.8125 13.5 4.8125 13.5 4 11 C3.01 10.67 2.02 10.34 1 10 C0.234375 8.22265625 0.234375 8.22265625 -0.25 6.0625 C-0.42015625 5.35222656 -0.5903125 4.64195312 -0.765625 3.91015625 C-1 2 -1 2 0 0 Z " fill="#4B7D86" transform="translate(347,160)"/>
<path d="M0 0 C0.7425 0.804375 1.485 1.60875 2.25 2.4375 C4.66288759 5.11536182 4.66288759 5.11536182 7.1875 5.5 C7.785625 5.665 8.38375 5.83 9 6 C10.25290395 8.44316271 11 10.24525395 11 13 C12.65 13.33 14.3 13.66 16 14 C16 15.65 16 17.3 16 19 C15.443125 18.54625 14.88625 18.0925 14.3125 17.625 C12.11606098 15.90319834 12.11606098 15.90319834 9.65625 15.28125 C6.13161011 13.58112958 4.36742618 11.00161626 2.1875 7.875 C1.78080078 7.31167969 1.37410156 6.74835938 0.95507812 6.16796875 C-0.04035028 4.78607991 -1.02162964 3.3940179 -2 2 C-1.34 1.34 -0.68 0.68 0 0 Z " fill="#4B848F" transform="translate(356,227)"/>
<path d="M0 0 C7.92 0 15.84 0 24 0 C23.67 0.66 23.34 1.32 23 2 C21.783125 1.95875 20.56625 1.9175 19.3125 1.875 C8.25086444 1.92717753 -2.23287249 3.6242445 -11.08984375 10.66015625 C-13 12 -13 12 -16 12 C-16 11.34 -16 10.68 -16 10 C-15.34 10 -14.68 10 -14 10 C-13.67 9.01 -13.34 8.02 -13 7 C-8.97148673 4.20242134 -4.95756531 2 0 2 C0 1.34 0 0.68 0 0 Z " fill="#5F7F8D" transform="translate(249,155)"/>
<path d="M0 0 C1.98 0.99 1.98 0.99 4 2 C3.34 2 2.68 2 2 2 C2 13.88 2 25.76 2 38 C1.34 38 0.68 38 0 38 C0 25.46 0 12.92 0 0 Z " fill="#3C646F" transform="translate(282,120)"/>
<path d="M0 0 C5.61 0 11.22 0 17 0 C17 10.89 17 21.78 17 33 C12.05 33 7.1 33 2 33 C5.08888522 30.94074319 5.70935927 30.7609626 9.1875 30.875 C10.445625 30.91625 11.70375 30.9575 13 31 C15.19385228 24.71274041 15.42769342 18.68460222 15.625 12.0625 C15.66367187 10.99708984 15.70234375 9.93167969 15.7421875 8.83398438 C15.83585789 6.2229222 15.91899065 3.61148565 16 1 C10.72 1 5.44 1 0 1 C0 0.67 0 0.34 0 0 Z " fill="#356D7D" transform="translate(255,121)"/>
<path d="M0 0 C1.61363928 3.22727857 0.08456242 5.68923051 -1 9 C-1.6459596 10.34348741 -2.31438406 11.67631083 -3 13 C-3.36738281 13.76699219 -3.73476563 14.53398438 -4.11328125 15.32421875 C-4.50902344 16.10410156 -4.90476562 16.88398437 -5.3125 17.6875 C-5.70050781 18.47511719 -6.08851563 19.26273438 -6.48828125 20.07421875 C-8 22 -8 22 -10.66796875 22.76953125 C-11.43753906 22.84558594 -12.20710938 22.92164062 -13 23 C-9.22249288 14.95463629 -4.74001686 7.50404655 0 0 Z " fill="#739D9F" transform="translate(412,45)"/>
<path d="M0 0 C-0.66 1.98 -1.32 3.96 -2 6 C-2.33 5.01 -2.66 4.02 -3 3 C-4.24136719 3.28875 -5.48273438 3.5775 -6.76171875 3.875 C-8.40358121 4.25028285 -10.04551192 4.62526718 -11.6875 5 C-12.50412109 5.19078125 -13.32074219 5.3815625 -14.16210938 5.578125 C-18.17239326 6.48733916 -21.85717252 7.27000098 -26 7 C-23.46995131 3.20492696 -22.17901583 3.28950619 -17.8125 2.375 C-16.64460938 2.12878906 -15.47671875 1.88257812 -14.2734375 1.62890625 C-9.44044779 0.70037243 -4.94211853 0 0 0 Z " fill="#58888C" transform="translate(402,120)"/>
<path d="M0 0 C6.62525936 1.03519677 12.32515592 3.50778826 18 7 C20.31106075 8.06328215 22.64681645 9.03104207 25 10 C24.67 10.66 24.34 11.32 24 12 C14.19758065 10.27016129 14.19758065 10.27016129 10.9375 6.8125 C10.298125 6.214375 9.65875 5.61625 9 5 C6.29294488 5.14025199 6.29294488 5.14025199 4 6 C3.67 7.65 3.34 9.3 3 11 C2.67 11 2.34 11 2 11 C2.03480469 10.06027344 2.03480469 10.06027344 2.0703125 9.1015625 C2.08835937 8.28429687 2.10640625 7.46703125 2.125 6.625 C2.14820313 5.81289062 2.17140625 5.00078125 2.1953125 4.1640625 C2.21370051 1.78657757 2.21370051 1.78657757 0 0 Z " fill="#387989" transform="translate(282,119)"/>
<path d="M0 0 C4.455 0.99 4.455 0.99 9 2 C9 2.66 9 3.32 9 4 C11.475 4.99 11.475 4.99 14 6 C14 6.66 14 7.32 14 8 C16.64 8.99 19.28 9.98 22 11 C17.46051728 12.51316091 14.29370999 10.82613581 10 9 C6.51727666 7.22477852 3.05610822 5.44999072 0 3 C0 2.01 0 1.02 0 0 Z " fill="#3A6675" transform="translate(224,274)"/>
<path d="M0 0 C0 0.66 0 1.32 0 2 C-7.99476694 5.82358419 -16.25269965 7.02807774 -25 8 C-18.41180153 2.49673159 -8.52750718 0 0 0 Z " fill="#6B9199" transform="translate(259,119)"/>
<path d="M0 0 C1.6254308 0.14095064 3.25034051 0.28792087 4.875 0.4375 C5.77992188 0.51871094 6.68484375 0.59992188 7.6171875 0.68359375 C10 1 10 1 12 2 C13.155 2.144375 14.31 2.28875 15.5 2.4375 C19 3 19 3 21 5 C18.20251159 5.93249614 16.45679119 6.13476152 13.5625 6.125 C12.41974609 6.12886719 12.41974609 6.12886719 11.25390625 6.1328125 C9.04684141 6.00276015 7.12030724 5.60856199 5 5 C5 4.01 5 3.02 5 2 C3.35 1.67 1.7 1.34 0 1 C0 0.67 0 0.34 0 0 Z " fill="#4C8C8D" transform="translate(437,119)"/>
<path d="M0 0 C-1.43649883 2.87299765 -3.35854307 3.30297023 -6.25 4.625 C-7.20390625 5.07101563 -8.1578125 5.51703125 -9.140625 5.9765625 C-11.98930421 6.99617173 -14.00588745 7.20762094 -17 7 C-17.33 5.68 -17.66 4.36 -18 3 C-5.57363014 -0.15924658 -5.57363014 -0.15924658 0 0 Z " fill="#367788" transform="translate(252,124)"/>
<path d="M0 0 C0.33 0.66 0.66 1.32 1 2 C0.67 2.99 0.34 3.98 0 5 C-0.66 5 -1.32 5 -2 5 C-2.66 7.64 -3.32 10.28 -4 13 C-4.66 13 -5.32 13 -6 13 C-7.12974522 15.74366697 -8.10200673 18.37888214 -8.875 21.25 C-9.24625 22.1575 -9.6175 23.065 -10 24 C-12.125 24.875 -12.125 24.875 -14 25 C-13.67 23.68 -13.34 22.36 -13 21 C-12.34 21 -11.68 21 -11 21 C-10.67 19.02 -10.34 17.04 -10 15 C-9.34 15 -8.68 15 -8 15 C-7.67 13.35 -7.34 11.7 -7 10 C-6.34 10 -5.68 10 -5 10 C-4.67 7.69 -4.34 5.38 -4 3 C-3.01 3 -2.02 3 -1 3 C-0.67 2.01 -0.34 1.02 0 0 Z " fill="#41797F" transform="translate(397,75)"/>
<path d="M0 0 C4.56155986 0.49361946 4.56155986 0.49361946 6.50146484 2.73413086 C6.90059082 3.47026611 7.2997168 4.20640137 7.7109375 4.96484375 C8.15050781 5.76470703 8.59007812 6.56457031 9.04296875 7.38867188 C9.48253906 8.22978516 9.92210937 9.07089844 10.375 9.9375 C10.83777344 10.77474609 11.30054688 11.61199219 11.77734375 12.47460938 C14.23526258 17.03459909 14.23526258 17.03459909 15 19 C14.67 19.66 14.34 20.32 14 21 C11.00022122 19.50011061 10.44411857 16.94840874 9 14 C8.34 13.34 7.68 12.68 7 12 C7 10.68 7 9.36 7 8 C6.34 8 5.68 8 5 8 C3.515 5.03 3.515 5.03 2 2 C1.01 2.33 0.02 2.66 -1 3 C-0.67 2.01 -0.34 1.02 0 0 Z " fill="#7D9EA3" transform="translate(417,37)"/>
<path d="M0 0 C0.33 0 0.66 0 1 0 C1.0093457 0.60996826 1.01869141 1.21993652 1.02832031 1.84838867 C1.08221326 4.62889487 1.16582069 7.40775262 1.25 10.1875 C1.26417969 11.14720703 1.27835938 12.10691406 1.29296875 13.09570312 C1.48937125 18.77173534 1.90075398 21.77265254 6 26 C6.75 29.8125 6.75 29.8125 7 33 C6.34 33 5.68 33 5 33 C4.33333333 31.66666667 3.66666667 30.33333333 3 29 C2.649375 28.319375 2.29875 27.63875 1.9375 26.9375 C0.24715491 23.44412015 -0.11978479 20.72276784 -0.09765625 16.89453125 C-0.09443359 15.91162109 -0.09121094 14.92871094 -0.08789062 13.91601562 C-0.07951172 12.89185547 -0.07113281 11.86769531 -0.0625 10.8125 C-0.05798828 9.77673828 -0.05347656 8.74097656 -0.04882812 7.67382812 C-0.0370401 5.11582734 -0.02058515 2.55794267 0 0 Z " fill="#397180" transform="translate(215,196)"/>
<path d="M0 0 C1.76462683 3.08809695 2 4.23312136 2 8 C2.99 8.33 3.98 8.66 5 9 C5.33 11.31 5.66 13.62 6 16 C1.94635434 14.31098098 0.47114587 12.39156143 -1.25 8.5 C-2.25939652 6.01787742 -3.15226478 3.54320566 -4 1 C-2 0 -2 0 0 0 Z " fill="#3A7E8E" transform="translate(390,264)"/>
<path d="M0 0 C2.49552403 2.27597646 4.06622986 4.60721178 5.6875 7.5625 C6.12449219 8.34753906 6.56148438 9.13257812 7.01171875 9.94140625 C8 12 8 12 8 14 C6.00045254 14.04254356 3.99958364 14.04080783 2 14 C0.12175109 12.12175109 0.60897603 8.96064724 0.4375 6.4375 C0.35371094 5.23996094 0.26992188 4.04242188 0.18359375 2.80859375 C0.12300781 1.88175781 0.06242187 0.95492187 0 0 Z " fill="#6D9E9F" transform="translate(451,90)"/>
<path d="M0 0 C0.33 1.32 0.66 2.64 1 4 C0.34 4 -0.32 4 -1 4 C-1.1546875 5.051875 -1.1546875 5.051875 -1.3125 6.125 C-2.10054272 9.42045139 -3.32869762 12.05850781 -5 15 C-5.99 15.495 -5.99 15.495 -7 16 C-7 17.98 -7 19.96 -7 22 C-7.66 22.33 -8.32 22.66 -9 23 C-9.33 22.34 -9.66 21.68 -10 21 C-10.99 21.99 -11.98 22.98 -13 24 C-11.31784705 19.33751086 -8.94630388 15.16580137 -6.5 10.875 C-6.09652344 10.15957031 -5.69304687 9.44414063 -5.27734375 8.70703125 C-3.59332535 5.73359942 -1.89727817 2.84591726 0 0 Z " fill="#7BA2A7" transform="translate(391,81)"/>
<path d="M0 0 C0.5625 1.9375 0.5625 1.9375 1 4 C0.67 4.33 0.34 4.66 0 5 C1.32 5.66 2.64 6.32 4 7 C1.27076612 7.0270817 -1.45819637 7.04687847 -4.1875 7.0625 C-4.95642578 7.07087891 -5.72535156 7.07925781 -6.51757812 7.08789062 C-10.48526789 7.10491934 -14.12571234 6.98604115 -18 6 C-16.91015625 4.5 -16.91015625 4.5 -15 3 C-11.93359375 2.8125 -11.93359375 2.8125 -8.4375 3 C-5.02799278 3.25098205 -5.02799278 3.25098205 -2 3 C-1.34 2.01 -0.68 1.02 0 0 Z " fill="#568290" transform="translate(270,284)"/>
<path d="M0 0 C2.85984547 2.51632049 4.41468822 5.33885553 6.1875 8.6875 C6.71730469 9.68136719 7.24710937 10.67523438 7.79296875 11.69921875 C8.19128906 12.45847656 8.58960938 13.21773437 9 14 C7.35 13.67 5.7 13.34 4 13 C4 12.34 4 11.68 4 11 C3.01 11 2.02 11 1 11 C0.12132271 7.26562152 -0.08912219 3.83225427 0 0 Z " fill="#629093" transform="translate(459,104)"/>
<path d="M0 0 C1.9375 0.3125 1.9375 0.3125 4 1 C4.33 1.99 4.66 2.98 5 4 C16.55 4.33 28.1 4.66 40 5 C40 5.33 40 5.66 40 6 C34.94634708 6.09897181 29.89325976 6.17151603 24.83886719 6.21972656 C23.12001721 6.23982628 21.40123548 6.26711089 19.68261719 6.30175781 C17.21011511 6.35035034 14.7385179 6.37298435 12.265625 6.390625 C11.11540863 6.42159271 11.11540863 6.42159271 9.94195557 6.45318604 C6.35329994 6.45469096 4.38867579 6.29335445 1.48339844 4.10058594 C0 2 0 2 0 0 Z " fill="#73979E" transform="translate(397,284)"/>
<path d="M0 0 C3.37244652 3.99697365 6.71374722 8.27090179 9 13 C8.67 13.66 8.34 14.32 8 15 C7.01 14.67 6.02 14.34 5 14 C4.3125 11.9375 4.3125 11.9375 4 10 C3.34 10 2.68 10 2 10 C1.67 11.32 1.34 12.64 1 14 C-0.15837626 9.94568308 0.16308743 7.78187881 2 4 C1.34 4 0.68 4 0 4 C0 2.68 0 1.36 0 0 Z " fill="#6B9999" transform="translate(442,75)"/>
<path d="M0 0 C4.95 1.98 4.95 1.98 10 4 C9.67 4.99 9.34 5.98 9 7 C8.01 7.33 7.02 7.66 6 8 C5.01 7.34 4.02 6.68 3 6 C2.34 6.66 1.68 7.32 1 8 C1 6.35 1 4.7 1 3 C0.34 3 -0.32 3 -1 3 C-0.67 2.01 -0.34 1.02 0 0 Z " fill="#5B8493" transform="translate(216,268)"/>
<path d="M0 0 C0.66 0 1.32 0 2 0 C2 0.99 2 1.98 2 3 C2.66 3.33 3.32 3.66 4 4 C3.01 4.66 2.02 5.32 1 6 C0.67 5.67 0.34 5.34 0 5 C-0.33 5.66 -0.66 6.32 -1 7 C-1.66 7 -2.32 7 -3 7 C-3 7.99 -3 8.98 -3 10 C-3.99 10.495 -3.99 10.495 -5 11 C-5.65213292 13.02463255 -5.65213292 13.02463255 -6 15 C-6.66 15 -7.32 15 -8 15 C-6.74637759 8.98261245 -4.27607593 4.47361205 0 0 Z " fill="#427584" transform="translate(231,164)"/>
<path d="M0 0 C1.31223496 3.93670488 0.24296256 6.12488144 -1 10 C-1.66 10 -2.32 10 -3 10 C-3.061875 10.598125 -3.12375 11.19625 -3.1875 11.8125 C-4.3236757 14.87143458 -6.17330142 15.55041099 -9 17 C-7.51481201 12.95698825 -5.57122002 9.38853744 -3.375 5.6875 C-2.74335938 4.61886719 -2.11171875 3.55023438 -1.4609375 2.44921875 C-0.97882813 1.64097656 -0.49671875 0.83273438 0 0 Z " fill="#70999B" transform="translate(377,105)"/>
<path d="M0 0 C10.395 0.99 10.395 0.99 21 2 C20.01 3.485 20.01 3.485 19 5 C16.51979503 4.88658509 14.04155031 4.75985314 11.5625 4.625 C10.50192383 4.57859375 10.50192383 4.57859375 9.41992188 4.53125 C7.60760812 4.42719371 5.80182012 4.22080108 4 4 C3.67 3.34 3.34 2.68 3 2 C2.01 1.34 1.02 0.68 0 0 Z " fill="#6D939C" transform="translate(252,252)"/>
<path d="M0 0 C2 1 2 1 2 1 Z M-8 1 C-5.36 1 -2.72 1 0 1 C-0.64453125 1.82757813 -1.2890625 2.65515625 -1.953125 3.5078125 C-4.35754828 7.11444741 -4.65931901 10.62123739 -4.75 14.875 C-4.77964844 15.56335938 -4.80929687 16.25171875 -4.83984375 16.9609375 C-4.90980536 18.64001626 -4.95725211 20.32000812 -5 22 C-5.33 22 -5.66 22 -6 22 C-6 15.4 -6 8.8 -6 2 C-6.66 1.67 -7.32 1.34 -8 1 Z " fill="#377784" transform="translate(290,250)"/>
<path d="M0 0 C2 0 2 0 3.54296875 1.28515625 C8.02755805 6.13192141 8.02755805 6.13192141 7.875 10.9375 C7.441875 12.4534375 7.441875 12.4534375 7 14 C3.88719916 11.45316295 3.19905672 8.75704438 2 5 C1.34 4.34 0.68 3.68 0 3 C0 2.01 0 1.02 0 0 Z " fill="#468787" transform="translate(444,85)"/>
<path d="M0 0 C-3.01802003 2.48291009 -5.89683437 3.91340355 -9.5625 5.25 C-10.51253906 5.60578125 -11.46257812 5.9615625 -12.44140625 6.328125 C-15 7 -15 7 -18 6 C-17.34 6 -16.68 6 -16 6 C-15.67 5.01 -15.34 4.02 -15 3 C-10.274891 0.58273371 -5.28470322 -0.40651563 0 0 Z " fill="#648B96" transform="translate(307,282)"/>
<path d="M0 0 C3.91939465 3.80411834 7.49102731 7.81576108 11 12 C10.67 12.66 10.34 13.32 10 14 C6.58942406 12.5383246 4.30849105 10.92408866 2 8 C1.09335071 5.34117456 0.55332322 2.76661609 0 0 Z " fill="#74959C" transform="translate(378,199)"/>
<path d="M0 0 C1.7936743 1.1217963 3.5848773 2.24754483 5.375 3.375 C6.37273437 4.00148437 7.37046875 4.62796875 8.3984375 5.2734375 C11 7 11 7 13 9 C12.01 9.33 11.02 9.66 10 10 C10 9.34 10 8.68 10 8 C9.443125 8.226875 8.88625 8.45375 8.3125 8.6875 C6 9 6 9 3.3125 7.9375 C0.33420469 5.4421715 0.46315411 3.75103931 0 0 Z " fill="#6A929A" transform="translate(234,241)"/>
<path d="M0 0 C3.24299151 2.38957269 5.50902342 4.2047869 7 8 C6.01 8 5.02 8 4 8 C4 8.66 4 9.32 4 10 C3.01 10 2.02 10 1 10 C0.63720544 8.71073008 0.28503302 7.41846728 -0.0625 6.125 C-0.35833984 5.04605469 -0.35833984 5.04605469 -0.66015625 3.9453125 C-1 2 -1 2 0 0 Z " fill="#588691" transform="translate(347,160)"/>
<path d="M0 0 C0.33 0 0.66 0 1 0 C1.33 9.9 1.66 19.8 2 30 C2.66 30.33 3.32 30.66 4 31 C2.68 31.33 1.36 31.66 0 32 C0 21.44 0 10.88 0 0 Z " fill="#90B5BB" transform="translate(284,219)"/>
<path d="M0 0 C0.33 0 0.66 0 1 0 C1.01981934 0.55872803 1.03963867 1.11745605 1.06005859 1.69311523 C1.1565219 4.27497418 1.26569812 6.85615392 1.375 9.4375 C1.4059375 10.31599609 1.436875 11.19449219 1.46875 12.09960938 C1.72806619 17.95583327 2.57644185 23.31155423 4 29 C-1.17207113 22.66004184 -1.17207113 22.66004184 -0.87890625 16.9921875 C-0.83056641 16.00605469 -0.78222656 15.01992187 -0.73242188 14.00390625 C-0.67634766 12.97136719 -0.62027344 11.93882812 -0.5625 10.875 C-0.51029297 9.83472656 -0.45808594 8.79445312 -0.40429688 7.72265625 C-0.27439054 5.14814884 -0.13941748 2.57400704 0 0 Z " fill="#A1B6BF" transform="translate(218,195)"/>
<path d="M0 0 C1.32 0.33 2.64 0.66 4 1 C4 2.32 4 3.64 4 5 C4.66 5 5.32 5 6 5 C5.67 6.65 5.34 8.3 5 10 C4.34 10 3.68 10 3 10 C0.96564469 6.27034861 0 4.33094958 0 0 Z " fill="#3E8483" transform="translate(438,74)"/>
<path d="M0 0 C2.3125 -0.3125 2.3125 -0.3125 5 0 C7.63560713 3.27178817 8 4.72068147 8 9 C8.66 9.33 9.32 9.66 10 10 C9.01 10 8.02 10 7 10 C5.17578125 8.06640625 5.17578125 8.06640625 3.3125 5.5625 C2.68988281 4.73878906 2.06726563 3.91507812 1.42578125 3.06640625 C0 1 0 1 0 0 Z " fill="#6A8C94" transform="translate(381,264)"/>
<path d="M0 0 C0.33 0 0.66 0 1 0 C1.05413245 2.89608593 1.09373641 5.79115195 1.125 8.6875 C1.15013672 9.91243164 1.15013672 9.91243164 1.17578125 11.16210938 C1.2114802 15.57092929 1.07580814 18.98731576 -1 23 C-1.33 23 -1.66 23 -2 23 C-2.0270043 21.54176788 -2.04639787 20.08339325 -2.0625 18.625 C-2.07410156 17.81289062 -2.08570313 17.00078125 -2.09765625 16.1640625 C-2 14 -2 14 -1 12 C-0.77141886 9.9625237 -0.58975722 7.91959697 -0.4375 5.875 C-0.35371094 4.77929688 -0.26992188 3.68359375 -0.18359375 2.5546875 C-0.12300781 1.71164063 -0.06242187 0.86859375 0 0 Z " fill="#3A7989" transform="translate(334,236)"/>
<path d="M0 0 C0 3.6959107 -0.83487616 6.50462849 -2 10 C-3.65 10.33 -5.3 10.66 -7 11 C-6.68232368 5.59950264 -3.80003673 3.47662935 0 0 Z " fill="#38818F" transform="translate(310,230)"/>
<path d="M0 0 C1.875 0.3125 1.875 0.3125 4 1 C6.67927341 5.01891012 6.15601248 7.24161923 6 12 C5.67 12 5.34 12 5 12 C5 10.35 5 8.7 5 7 C4.360625 6.773125 3.72125 6.54625 3.0625 6.3125 C1 5 1 5 0.25 2.375 C0.1675 1.59125 0.085 0.8075 0 0 Z " fill="#3C7783" transform="translate(384,211)"/>
<path d="M0 0 C0.33 0 0.66 0 1 0 C1.10477512 5.78591511 0.99250545 11.29309366 0 17 C-0.66 17 -1.32 17 -2 17 C-2.05383848 14.54137599 -2.09359038 12.0839245 -2.125 9.625 C-2.14175781 8.92632812 -2.15851563 8.22765625 -2.17578125 7.5078125 C-2.19344267 5.67102514 -2.10303261 3.83398037 -2 2 C-1.34 1.34 -0.68 0.68 0 0 Z " fill="#3F6B7E" transform="translate(217,121)"/>
<path d="M0 0 C-0.66 1.32 -1.32 2.64 -2 4 C-2.99 3.67 -3.98 3.34 -5 3 C-4.67 3.99 -4.34 4.98 -4 6 C-5.32 6 -6.64 6 -8 6 C-8 6.99 -8 7.98 -8 9 C-8.66 9 -9.32 9 -10 9 C-9.70820766 5.49849196 -9.21713533 4.21713533 -6.6875 1.6875 C-4 0 -4 0 0 0 Z " fill="#387482" transform="translate(328,264)"/>
<path d="M0 0 C1.5 1.0625 1.5 1.0625 3 3 C3.1875 6.6875 3.1875 6.6875 3 10 C1.35 9.01 -0.3 8.02 -2 7 C-1.125 1.125 -1.125 1.125 0 0 Z " fill="#3F7786" transform="translate(346,209)"/>
<path d="M0 0 C0.99 0.33 1.98 0.66 3 1 C1.22972246 5.60272162 -0.18699218 8.7129243 -4 12 C-4.66 11.67 -5.32 11.34 -6 11 C-5.566875 10.29875 -5.13375 9.5975 -4.6875 8.875 C-2.98498914 5.97442594 -1.47551433 3.02129125 0 0 Z " fill="#388987" transform="translate(414,47)"/>
<path d="M0 0 C3.40843742 2.88406243 4.86591384 4.3708265 5.8125 8.8125 C5.9053125 10.3903125 5.9053125 10.3903125 6 12 C2.32966073 8.72291137 0.30718811 5.28477792 -2 1 C-1.34 0.67 -0.68 0.34 0 0 Z " fill="#688E97" transform="translate(375,252)"/>
<path d="M0 0 C1.09651823 3.41139003 0.94215473 6.20655581 0.5625 9.75 C0.40974609 11.22726563 0.40974609 11.22726563 0.25390625 12.734375 C0.12822266 13.85585937 0.12822266 13.85585937 0 15 C-0.99 15 -1.98 15 -3 15 C-3.55353075 4.44191344 -3.55353075 4.44191344 0 0 Z " fill="#387D8D" transform="translate(335,204)"/>
<path d="M0 0 C1.65 0 3.3 0 5 0 C5.12375 0.969375 5.2475 1.93875 5.375 2.9375 C5.58125 3.948125 5.7875 4.95875 6 6 C6.66 6.33 7.32 6.66 8 7 C5.03 6.505 5.03 6.505 2 6 C1.34 4.02 0.68 2.04 0 0 Z " fill="#35707E" transform="translate(229,241)"/>
<path d="M0 0 C2.96404505 2.80804268 5.44499019 5.18315774 7 9 C5.68 9 4.36 9 3 9 C3 8.34 3 7.68 3 7 C2.01 6.67 1.02 6.34 0 6 C0 4.02 0 2.04 0 0 Z " fill="#628C95" transform="translate(371,190)"/>
<path d="M0 0 C0.66 0.66 1.32 1.32 2 2 C1.38125 3.0725 0.7625 4.145 0.125 5.25 C-1.3323679 7.79780984 -2.72924491 10.35259355 -4 13 C-4.33 13 -4.66 13 -5 13 C-4.54996653 7.37458159 -3.31558515 4.38512875 0 0 Z " fill="#409191" transform="translate(408,59)"/>
<path d="M0 0 C0.99 0 1.98 0 3 0 C3.99 2.31 4.98 4.62 6 7 C3.6875 7.3125 3.6875 7.3125 1 7 C-0.8125 4.5 -0.8125 4.5 -2 2 C-1.34 1.67 -0.68 1.34 0 1 C0 0.67 0 0.34 0 0 Z " fill="#4D8694" transform="translate(395,277)"/>
<path d="M0 0 C-2.97 2.64 -5.94 5.28 -9 8 C-9.99 7.67 -10.98 7.34 -12 7 C-11.01 6.67 -10.02 6.34 -9 6 C-9 5.01 -9 4.02 -9 3 C-8.01 2.67 -7.02 2.34 -6 2 C-6 1.34 -6 0.68 -6 0 C-2.25 -1.125 -2.25 -1.125 0 0 Z " fill="#708FA2" transform="translate(329,267)"/>
<path d="M0 0 C0.66 0.33 1.32 0.66 2 1 C2 5.62 2 10.24 2 15 C1.67 15 1.34 15 1 15 C1 13.35 1 11.7 1 10 C0.34 10 -0.32 10 -1 10 C-0.67 6.7 -0.34 3.4 0 0 Z " fill="#76B4C0" transform="translate(314,196)"/>
<path d="M0 0 C0.33 0 0.66 0 1 0 C1 2.97 1 5.94 1 9 C-3.62 9 -8.24 9 -13 9 C-9.91111478 6.94074319 -9.29064073 6.7609626 -5.8125 6.875 C-3.9253125 6.936875 -3.9253125 6.936875 -2 7 C-1.34 4.69 -0.68 2.38 0 0 Z " fill="#3E7688" transform="translate(270,145)"/>
<path d="M0 0 C0.33 0 0.66 0 1 0 C1.02725341 1.7290774 1.04650987 3.45828176 1.0625 5.1875 C1.07410156 6.15042969 1.08570313 7.11335937 1.09765625 8.10546875 C1.00486622 10.85576513 0.62111685 13.32479591 0 16 C0.99 16 1.98 16 3 16 C2.67 16.99 2.34 17.98 2 19 C0.68 18.34 -0.64 17.68 -2 17 C-1.34 11.39 -0.68 5.78 0 0 Z " fill="#7AA1B5" transform="translate(218,122)"/>
<path d="M0 0 C0.66 0.99 1.32 1.98 2 3 C1.67 3.66 1.34 4.32 1 5 C3.31 5 5.62 5 8 5 C4.3558226 7.4294516 2.28758728 7.16179575 -2 7 C-1.125 1.125 -1.125 1.125 0 0 Z " fill="#839E9D" transform="translate(367,122)"/>
<path d="M0 0 C0.66 0.66 1.32 1.32 2 2 C0.741875 2.185625 -0.51625 2.37125 -1.8125 2.5625 C-2.87404297 2.71912109 -2.87404297 2.71912109 -3.95703125 2.87890625 C-6 3 -6 3 -9 2 C-9 1.34 -9 0.68 -9 0 C-5.88135455 -1.55932272 -3.33704665 -0.65549131 0 0 Z " fill="#418381" transform="translate(456,122)"/>
<path d="M0 0 C0.99 0 1.98 0 3 0 C3.76173392 4.3164922 4.16063604 7.74433453 3 12 C2.34 11.67 1.68 11.34 1 11 C0.5859375 8.49609375 0.5859375 8.49609375 0.375 5.4375 C0.30023438 4.42558594 0.22546875 3.41367188 0.1484375 2.37109375 C0.09945313 1.58863281 0.05046875 0.80617188 0 0 Z " fill="#3E8585" transform="translate(456,104)"/>
<path d="M0 0 C0.66 0.33 1.32 0.66 2 1 C2 1.66 2 2.32 2 3 C2.66 3.33 3.32 3.66 4 4 C-0.455 5.485 -0.455 5.485 -5 7 C-4.34 5.35 -3.68 3.7 -3 2 C-2.01 2 -1.02 2 0 2 C0 1.34 0 0.68 0 0 Z " fill="#5C8386" transform="translate(418,38)"/>
<path d="M0 0 C0.33 0 0.66 0 1 0 C1.42670076 3.48472283 1.64789556 6.0186845 -0.3359375 9.0234375 C-1.83609212 10.74896747 -3.36656784 12.40059768 -5 14 C-5.66 13.01 -6.32 12.02 -7 11 C-5.625 9.5 -5.625 9.5 -4 8 C-3.34 8 -2.68 8 -2 8 C-2 7.01 -2 6.02 -2 5 C-1.34 5 -0.68 5 0 5 C0 3.35 0 1.7 0 0 Z " fill="#7D9DA7" transform="translate(336,251)"/>
<path d="M0 0 C0.515625 0.309375 1.03125 0.61875 1.5625 0.9375 C4.66665423 2.29059287 7.65115007 2.61359424 11 3 C10.01 3.495 10.01 3.495 9 4 C9 4.66 9 5.32 9 6 C5.85262818 5.30058404 2.97411124 4.23921302 0 3 C0 2.01 0 1.02 0 0 Z " fill="#537D86" transform="translate(241,248)"/>
<path d="M0 0 C0.71484375 1.703125 0.71484375 1.703125 1 4 C-0.43359375 6.359375 -0.43359375 6.359375 -2.4375 8.75 C-3.42556641 9.94882813 -3.42556641 9.94882813 -4.43359375 11.171875 C-5.20896484 12.07679688 -5.20896484 12.07679688 -6 13 C-7.33332095 10.3333581 -6.67102033 8.83319697 -6 6 C-5.01 6 -4.02 6 -3 6 C-3 5.01 -3 4.02 -3 3 C-2.34 3 -1.68 3 -1 3 C-0.67 2.01 -0.34 1.02 0 0 Z " fill="#87A4AE" transform="translate(231,168)"/>
<path d="M0 0 C1.66666667 1.66666667 3.33333333 3.33333333 5 5 C5.763125 5.721875 6.52625 6.44375 7.3125 7.1875 C9 9 9 9 9 11 C7.0625 10.6875 7.0625 10.6875 5 10 C4.67 9.01 4.34 8.02 4 7 C3.01 7.495 3.01 7.495 2 8 C1.34 5.36 0.68 2.72 0 0 Z " fill="#809DAC" transform="translate(338,149)"/>
<path d="M0 0 C2.475 0.495 2.475 0.495 5 1 C5 1.66 5 2.32 5 3 C7.97 3.495 7.97 3.495 11 4 C10.67 4.66 10.34 5.32 10 6 C2.36923077 4.52307692 2.36923077 4.52307692 0.5 1.875 C0.335 1.25625 0.17 0.6375 0 0 Z " fill="#427A87" transform="translate(312,132)"/>
<path d="M0 0 C1.62974564 0.76074843 3.25366648 1.53398433 4.875 2.3125 C5.77992188 2.74175781 6.68484375 3.17101562 7.6171875 3.61328125 C10 5 10 5 12 8 C9.0625 7.625 9.0625 7.625 6 7 C5.67 6.34 5.34 5.68 5 5 C2.97536745 4.34786708 2.97536745 4.34786708 1 4 C0.67 2.68 0.34 1.36 0 0 Z " fill="#7B9AA4" transform="translate(311,128)"/>
<path d="M0 0 C1.5 1.0625 1.5 1.0625 3 3 C3.1875 6.6875 3.1875 6.6875 3 10 C1.68 10 0.36 10 -1 10 C-2.23076923 4.58461538 -2.23076923 4.58461538 -1.0625 1.625 C-0.5365625 0.820625 -0.5365625 0.820625 0 0 Z " fill="#388E8D" transform="translate(426,54)"/>
<path d="M0 0 C1.6026213 3.2052426 0.04134314 5.70241339 -1 9 C-1.33 9.99 -1.66 10.98 -2 12 C-3.32 12 -4.64 12 -6 12 C-4.43358249 7.69235185 -2.31663844 3.93828536 0 0 Z " fill="#85A7A7" transform="translate(412,45)"/>
<path d="M0 0 C1.65 0.99 3.3 1.98 5 3 C4.67 3.99 4.34 4.98 4 6 C1.36 6 -1.28 6 -4 6 C-3.34 5.01 -2.68 4.02 -2 3 C-1.34 3 -0.68 3 0 3 C0 2.01 0 1.02 0 0 Z " fill="#457D8E" transform="translate(313,271)"/>
<path d="M0 0 C1.98 1.65 3.96 3.3 6 5 C5.67 6.65 5.34 8.3 5 10 C4.01 9.67 3.02 9.34 2 9 C1.26953125 6.93359375 1.26953125 6.93359375 0.8125 4.4375 C0.65394531 3.61121094 0.49539063 2.78492188 0.33203125 1.93359375 C0.16767578 0.97646484 0.16767578 0.97646484 0 0 Z " fill="#447A88" transform="translate(379,255)"/>
<path d="M0 0 C4.455 0.99 4.455 0.99 9 2 C9 2.66 9 3.32 9 4 C9.66 4.33 10.32 4.66 11 5 C9.741875 5.04125 8.48375 5.0825 7.1875 5.125 C6.47980469 5.14820313 5.77210938 5.17140625 5.04296875 5.1953125 C3 5 3 5 0 3 C0 2.01 0 1.02 0 0 Z " fill="#3C7785" transform="translate(224,274)"/>
<path d="M0 0 C3.37462715 0.54723683 5.08235 1.0549 8 3 C7.34 3 6.68 3 6 3 C6 3.66 6 4.32 6 5 C5.01 5.495 5.01 5.495 4 6 C3.34444881 8.52733235 3.34444881 8.52733235 3 11 C2.67 11 2.34 11 2 11 C2.03480469 10.06027344 2.03480469 10.06027344 2.0703125 9.1015625 C2.08835937 8.28429687 2.10640625 7.46703125 2.125 6.625 C2.14820313 5.81289062 2.17140625 5.00078125 2.1953125 4.1640625 C2.21370051 1.78657757 2.21370051 1.78657757 0 0 Z " fill="#507E8B" transform="translate(282,119)"/>
<path d="M0 0 C0.33 1.32 0.66 2.64 1 4 C-4.75 7 -4.75 7 -7 7 C-7 6.34 -7 5.68 -7 5 C-6.34 5 -5.68 5 -5 5 C-4.87625 4.360625 -4.7525 3.72125 -4.625 3.0625 C-4.41875 2.381875 -4.2125 1.70125 -4 1 C-2 0 -2 0 0 0 Z " fill="#628796" transform="translate(234,127)"/>
<path d="M0 0 C0.33 0.99 0.66 1.98 1 3 C1.99 3 2.98 3 4 3 C7 7.22222222 7 7.22222222 7 10 C6.01 10 5.02 10 4 10 C3.71125 9.360625 3.4225 8.72125 3.125 8.0625 C2.17176549 5.84793921 2.17176549 5.84793921 0 5 C0 3.35 0 1.7 0 0 Z " fill="#459295" transform="translate(459,112)"/>
<path d="M0 0 C3.93846154 3.32307692 3.93846154 3.32307692 4.25 6.75 C4.1675 7.4925 4.085 8.235 4 9 C-0.875 4.375 -0.875 4.375 -2 1 C-1.34 0.67 -0.68 0.34 0 0 Z " fill="#618B94" transform="translate(356,227)"/>
<path d="M0 0 C2.64 0.66 5.28 1.32 8 2 C8 3.65 8 5.3 8 7 C7.4225 6.525625 6.845 6.05125 6.25 5.5625 C4.07417916 4.0515133 2.57397552 3.45963849 0 3 C0 2.01 0 1.02 0 0 Z " fill="#3B7585" transform="translate(364,239)"/>
<path d="M0 0 C5.27315333 0.4452885 10.01770224 1.08373163 15 3 C15 3.33 15 3.66 15 4 C9.1977825 4.36263859 5.36000789 3.25684543 0 1 C0 0.67 0 0.34 0 0 Z " fill="#92AEB3" transform="translate(287,120)"/>
<path d="M0 0 C0.70125 0.144375 1.4025 0.28875 2.125 0.4375 C5.07556141 1.01478375 8.03270151 1.51695141 11 2 C7.5980513 4.09350689 4.94727588 4.17942163 1 4 C0.67 2.68 0.34 1.36 0 0 Z " fill="#3D848B" transform="translate(371,121)"/>
<path d="M0 0 C2.61500768 2.36595933 4.38999603 4.86049226 6 8 C5.67 8.66 5.34 9.32 5 10 C2 9 2 9 0.8125 6.6875 C0 4 0 4 0 0 Z " fill="#6F9395" transform="translate(436,65)"/>
<path d="M0 0 C6.57142857 5 6.57142857 5 8 10 C7.01 9.67 6.02 9.34 5 9 C5 8.01 5 7.02 5 6 C3.68 6 2.36 6 1 6 C0.67 4.02 0.34 2.04 0 0 Z " fill="#5C8E99" transform="translate(394,220)"/>
<path d="M0 0 C2 1.5625 2 1.5625 4 4 C4.25 7.75 4.25 7.75 4 11 C3.01 10.67 2.02 10.34 1 10 C0.67 6.7 0.34 3.4 0 0 Z " fill="#55848E" transform="translate(389,213)"/>
<path d="M0 0 C3 1 3 1 4.1875 3.3125 C5 6 5 6 5 10 C4.34 10 3.68 10 3 10 C2.01 6.7 1.02 3.4 0 0 Z " fill="#387483" transform="translate(375,198)"/>
<path d="M0 0 C0.763125 0.20625 1.52625 0.4125 2.3125 0.625 C2.3125 1.285 2.3125 1.945 2.3125 2.625 C0.0025 2.625 -2.3075 2.625 -4.6875 2.625 C-4.6875 4.275 -4.6875 5.925 -4.6875 7.625 C-5.0175 7.625 -5.3475 7.625 -5.6875 7.625 C-5.875 4.75 -5.875 4.75 -5.6875 1.625 C-2.6875 -0.375 -2.6875 -0.375 0 0 Z " fill="#408286" transform="translate(439.6875,120.375)"/>
<path d="M0 0 C2.475 0.99 2.475 0.99 5 2 C5 2.66 5 3.32 5 4 C4.01 4.495 4.01 4.495 3 5 C2.01 6.485 2.01 6.485 1 8 C1 6.35 1 4.7 1 3 C0.34 3 -0.32 3 -1 3 C-0.67 2.01 -0.34 1.02 0 0 Z " fill="#488597" transform="translate(216,268)"/>
<path d="M0 0 C0.66 0.33 1.32 0.66 2 1 C2 1.66 2 2.32 2 3 C1.01 3.495 1.01 3.495 0 4 C0 4.99 0 5.98 0 7 C-0.66 7 -1.32 7 -2 7 C-2 6.34 -2 5.68 -2 5 C-2.99 4.67 -3.98 4.34 -5 4 C-3.35 2.68 -1.7 1.36 0 0 Z " fill="#4D7F91" transform="translate(330,259)"/>
<path d="M0 0 C1.9375 0.6875 1.9375 0.6875 4 2 C4.75 4.625 4.75 4.625 5 7 C2.5 5.75 2.5 5.75 0 4 C0 2.68 0 1.36 0 0 Z " fill="#3F6A78" transform="translate(391,273)"/>
<path d="M0 0 C1.875 0.25 1.875 0.25 4 1 C5.25 3.0625 5.25 3.0625 6 5 C5.34 5.66 4.68 6.32 4 7 C0 2.25 0 2.25 0 0 Z " fill="#598D95" transform="translate(339,208)"/>
<path d="M0 0 C1.65 1.65 3.3 3.3 5 5 C4.67 5.66 4.34 6.32 4 7 C3.34 7 2.68 7 2 7 C2 6.34 2 5.68 2 5 C1.34 5 0.68 5 0 5 C-0.33 4.01 -0.66 3.02 -1 2 C-0.67 1.34 -0.34 0.68 0 0 Z " fill="#668B94" transform="translate(366,184)"/>
<path d="M0 0 C0 0.66 0 1.32 0 2 C-2.64 2.66 -5.28 3.32 -8 4 C-8 3.01 -8 2.02 -8 1 C-5.29120665 -0.35439668 -2.99066732 -0.06501451 0 0 Z " fill="#3D7E91" transform="translate(260,122)"/>
<path d="M0 0 C2.31 0.33 4.62 0.66 7 1 C6.01 1.495 6.01 1.495 5 2 C5 2.66 5 3.32 5 4 C2.69 4 0.38 4 -2 4 C-1.34 2.68 -0.68 1.36 0 0 Z " fill="#567B86" transform="translate(284,286)"/>
<path d="M0 0 C0.66 0.33 1.32 0.66 2 1 C2 1.99 2 2.98 2 4 C3.32 4.33 4.64 4.66 6 5 C6 5.66 6 6.32 6 7 C3.69 6.34 1.38 5.68 -1 5 C-0.67 3.35 -0.34 1.7 0 0 Z " fill="#3B7381" transform="translate(341,155)"/>
<path d="M0 0 C2.31 0.33 4.62 0.66 7 1 C5 3 5 3 3.0546875 3.1953125 C1.03645833 3.13020833 -0.98177083 3.06510417 -3 3 C-2.01 2.67 -1.02 2.34 0 2 C0 1.34 0 0.68 0 0 Z " fill="#4D7582" transform="translate(249,155)"/>
<path d="M0 0 C0.6875 1.6875 0.6875 1.6875 1 4 C-0.3125 6.75 -0.3125 6.75 -2 9 C-2.66 9 -3.32 9 -4 9 C-2.94124926 5.59687262 -1.99097846 2.98646769 0 0 Z " fill="#89AAAE" transform="translate(398,69)"/>
<path d="M0 0 C4.24480464 -0.33292585 6.35542625 -0.43885872 9.9375 2 C10.618125 2.66 11.29875 3.32 12 4 C7.6822542 3.49202991 3.96697886 2.80317221 0 1 C0 0.67 0 0.34 0 0 Z " fill="#64919D" transform="translate(240,285)"/>
<path d="M0 0 C2.32472205 2.85306797 3.7508258 5.54074837 5 9 C2.5 7.875 2.5 7.875 0 6 C-0.3125 2.8125 -0.3125 2.8125 0 0 Z " fill="#88AFB4" transform="translate(222,224)"/>
<path d="M0 0 C0.99 0.66 1.98 1.32 3 2 C2.67 3.65 2.34 5.3 2 7 C0.35 5.35 -1.3 3.7 -3 2 C-2.01 1.34 -1.02 0.68 0 0 Z " fill="#5C8693" transform="translate(349,217)"/>
<path d="M0 0 C0.66 0.33 1.32 0.66 2 1 C2.6328125 3.06640625 2.6328125 3.06640625 3.125 5.5625 C3.29257813 6.38878906 3.46015625 7.21507812 3.6328125 8.06640625 C3.75398437 8.70449219 3.87515625 9.34257812 4 10 C0.125 5.25 0.125 5.25 -1 3 C-0.67 2.01 -0.34 1.02 0 0 Z " fill="#81A0AA" transform="translate(218,214)"/>
<path d="M0 0 C2.32590854 3.63423209 2.16265833 6.77088331 2 11 C-0.14208427 7.7868736 -0.59687808 5.78934603 -1 2 C-0.67 1.34 -0.34 0.68 0 0 Z " fill="#387C8C" transform="translate(314,184)"/>
<path d="M0 0 C1.875 0.125 1.875 0.125 4 1 C5.25 4.0625 5.25 4.0625 6 7 C5.34 7 4.68 7 4 7 C0 2.52941176 0 2.52941176 0 0 Z " fill="#43717F" transform="translate(334,148)"/>
<path d="M0 0 C-0.33 0.66 -0.66 1.32 -1 2 C-3.3140622 2.73075648 -5.64828869 3.40138258 -8 4 C-8 3.01 -8 2.02 -8 1 C-2.25 -1.125 -2.25 -1.125 0 0 Z " fill="#386674" transform="translate(242,126)"/>
<path d="M0 0 C0.99 0.33 1.98 0.66 3 1 C3 1.99 3 2.98 3 4 C2.34 4 1.68 4 1 4 C1 4.66 1 5.32 1 6 C0.34 6 -0.32 6 -1 6 C-1.042721 4.33388095 -1.04063832 2.66617115 -1 1 C-0.67 0.67 -0.34 0.34 0 0 Z " fill="#478588" transform="translate(429,57)"/>
<path d="M0 0 C0.103125 0.639375 0.20625 1.27875 0.3125 1.9375 C0.539375 2.618125 0.76625 3.29875 1 4 C1.99 4.33 2.98 4.66 4 5 C1 6 1 6 -2 5 C-1.125 1.125 -1.125 1.125 0 0 Z " fill="#377786" transform="translate(391,268)"/>
<path d="M0 0 C2.31 0.66 4.62 1.32 7 2 C6.67 2.66 6.34 3.32 6 4 C3.03 3.505 3.03 3.505 0 3 C0 2.01 0 1.02 0 0 Z " fill="#386874" transform="translate(250,252)"/>
<path d="M0 0 C0.99 0.33 1.98 0.66 3 1 C2.625 3.4375 2.625 3.4375 2 6 C1.01 6.495 1.01 6.495 0 7 C-0.93423645 3.98968256 -1.04449911 3.13349732 0 0 Z " fill="#397884" transform="translate(396,225)"/>
<path d="M0 0 C1.65 1.65 3.3 3.3 5 5 C3.68 5.33 2.36 5.66 1 6 C-0.0625 4.125 -0.0625 4.125 -1 2 C-0.67 1.34 -0.34 0.68 0 0 Z " fill="#73969E" transform="translate(360,176)"/>
<path d="M0 0 C3.16115776 1.36983503 3.9927092 1.9890638 6 5 C3 5 3 5 0 3 C0 2.01 0 1.02 0 0 Z " fill="#3B8090" transform="translate(332,149)"/>
<path d="M0 0 C0.556875 0.226875 1.11375 0.45375 1.6875 0.6875 C-5.0625 4.6875 -5.0625 4.6875 -7.3125 4.6875 C-7.3125 4.0275 -7.3125 3.3675 -7.3125 2.6875 C-3.15982824 -0.42700382 -3.15982824 -0.42700382 0 0 Z " fill="#3E7E92" transform="translate(234.3125,131.3125)"/>
<path d="M0 0 C1.093125 0.226875 2.18625 0.45375 3.3125 0.6875 C-0.0894487 2.78100689 -2.74022412 2.86692163 -6.6875 2.6875 C-4.58035839 -0.41123767 -3.86755884 -0.32775922 0 0 Z " fill="#408D92" transform="translate(398.6875,118.3125)"/>
<path d="M0 0 C2.34058637 2.12780579 3.70700306 4.11562221 5 7 C3.35 6.67 1.7 6.34 0 6 C0 4.02 0 2.04 0 0 Z " fill="#88ACAF" transform="translate(463,111)"/>
<path d="M0 0 C-1.875 4.75 -1.875 4.75 -3 7 C-3.66 6.67 -4.32 6.34 -5 6 C-4.625 3.5625 -4.625 3.5625 -4 1 C-2 0 -2 0 0 0 Z " fill="#41747B" transform="translate(403,67)"/>
<path d="M0 0 C1.65 0.33 3.3 0.66 5 1 C5.33 2.32 5.66 3.64 6 5 C5.01 4.67 4.02 4.34 3 4 C2.67 3.34 2.34 2.68 2 2 C1.01 2.33 0.02 2.66 -1 3 C-0.67 2.01 -0.34 1.02 0 0 Z " fill="#819093" transform="translate(417,37)"/>
</svg>
